<svg width="28" height="28" viewBox="0 0 28 28" fill="none" xmlns="http://www.w3.org/2000/svg">
<path d="M14.8284 18.1295L21.42 11.5262C21.5294 11.4177 21.6162 11.2887 21.6754 11.1465C21.7346 11.0044 21.7651 10.8519 21.7651 10.6979C21.7651 10.5439 21.7346 10.3914 21.6754 10.2492C21.6162 10.107 21.5294 9.97799 21.42 9.86953C21.2014 9.65224 20.9058 9.53027 20.5975 9.53027C20.2893 9.53027 19.9936 9.65224 19.775 9.86953L13.9417 15.6445L8.16671 9.86953C7.94812 9.65224 7.65242 9.53027 7.34421 9.53027C7.03599 9.53027 6.7403 9.65224 6.52171 9.86953C6.41147 9.97758 6.32377 10.1064 6.26369 10.2486C6.20361 10.3908 6.17235 10.5435 6.17171 10.6979C6.17235 10.8522 6.20361 11.0049 6.26369 11.1471C6.32377 11.2893 6.41147 11.4181 6.52171 11.5262L13.1134 18.1295C13.2226 18.248 13.3552 18.3425 13.5028 18.4071C13.6504 18.4717 13.8098 18.5051 13.9709 18.5051C14.132 18.5051 14.2914 18.4717 14.4389 18.4071C14.5865 18.3425 14.7191 18.248 14.8284 18.1295Z" fill="#031025"/>
</svg>
