<svg width="27" height="16" viewBox="0 0 27 16" fill="none" xmlns="http://www.w3.org/2000/svg">
<g id="Iconly/Light/Arrow - Left 2">
<g id="Group 238084">
<path id="Arrow 1" d="M23.7071 8.70711C24.0976 8.31658 24.0976 7.68342 23.7071 7.29289L17.3431 0.928931C16.9526 0.538407 16.3195 0.538407 15.9289 0.928931C15.5384 1.31946 15.5384 1.95262 15.9289 2.34315L21.5858 8L15.9289 13.6569C15.5384 14.0474 15.5384 14.6805 15.9289 15.0711C16.3195 15.4616 16.9526 15.4616 17.3431 15.0711L23.7071 8.70711ZM8 9L23 9L23 7L8 7L8 9Z" fill="#3079EC"/>
<path id="Arrow 2" d="M3.65234 7C3.10006 7 2.65234 7.44772 2.65234 8C2.65234 8.55228 3.10006 9 3.65234 9L3.65234 7ZM3.65234 9H6.43495V7L3.65234 7L3.65234 9Z" fill="#3079EC"/>
</g>
</g>
</svg>
