<svg width="17" height="18" viewBox="0 0 17 18" fill="none" xmlns="http://www.w3.org/2000/svg">
<path d="M1.07715 6.61029H15.9304" stroke="#031025" stroke-linecap="round" stroke-linejoin="round"/>
<path d="M12.2033 9.80157H12.211M8.50541 9.80157H8.51313M4.7998 9.80157H4.80752M12.2033 12.9771H12.211M8.50541 12.9771H8.51313M4.7998 12.9771H4.80752" stroke="#031025" stroke-width="1.5" stroke-linecap="round" stroke-linejoin="round"/>
<path d="M11.8711 0.560852V2.86085" stroke="#031025" stroke-linecap="round" stroke-linejoin="round"/>
<path d="M5.13867 0.560852V2.86085" stroke="#031025" stroke-linecap="round" stroke-linejoin="round"/>
<path d="M16.1495 5.00452V5.00609V13.1028C16.1495 14.3312 15.7724 15.2186 15.1488 15.8024C14.5203 16.3907 13.5771 16.7309 12.332 16.7309H4.67786C3.43954 16.7309 2.49704 16.3859 1.86694 15.7871C1.2407 15.192 0.860352 14.2867 0.860352 13.0357V5.00609C0.860352 3.77852 1.23909 2.89336 1.86342 2.31146C2.493 1.72467 3.43661 1.38641 4.67786 1.38641H12.3404C13.5863 1.38641 14.5293 1.72489 15.1564 2.31099C15.7782 2.89212 16.1534 3.77657 16.1495 5.00452Z" stroke="#031025" stroke-linecap="round" stroke-linejoin="round"/>
</svg>
