<svg width="32" height="32" viewBox="0 0 32 32" fill="none" xmlns="http://www.w3.org/2000/svg">
<circle cx="16" cy="16" r="16" fill="#F8F9FB"/>
<path d="M19.3327 7.66797H12.666C12.003 7.66797 11.3671 7.93136 10.8983 8.4002C10.4294 8.86904 10.166 9.50493 10.166 10.168V23.5013C10.1654 23.6481 10.2037 23.7925 10.2768 23.9198C10.35 24.0472 10.4555 24.1529 10.5827 24.2263C10.7094 24.2994 10.8531 24.3379 10.9994 24.3379C11.1456 24.3379 11.2893 24.2994 11.416 24.2263L15.9994 21.5763L20.5827 24.2263C20.7097 24.2983 20.8534 24.3356 20.9994 24.3346C21.1453 24.3356 21.289 24.2983 21.416 24.2263C21.5432 24.1529 21.6487 24.0472 21.7219 23.9198C21.795 23.7925 21.8333 23.6481 21.8327 23.5013V10.168C21.8327 9.50493 21.5693 8.86904 21.1005 8.4002C20.6316 7.93136 19.9957 7.66797 19.3327 7.66797ZM20.166 22.0596L16.416 19.893C16.2893 19.8198 16.1456 19.7813 15.9994 19.7813C15.8531 19.7813 15.7094 19.8198 15.5827 19.893L11.8327 22.0596V10.168C11.8327 9.94695 11.9205 9.73499 12.0768 9.57871C12.233 9.42243 12.445 9.33464 12.666 9.33464H19.3327C19.5537 9.33464 19.7657 9.42243 19.9219 9.57871C20.0782 9.73499 20.166 9.94695 20.166 10.168V22.0596Z" fill="#031025"/>
</svg>
