<svg width="17" height="14" viewBox="0 0 17 14" fill="none" xmlns="http://www.w3.org/2000/svg">
<circle cx="6.46624" cy="3.18206" r="3.18188" fill="#3079EC"/>
<path d="M6.46621 6.36383C3.17126 6.36383 0.500183 8.84468 0.500183 11.0748C1.50018 14.5001 13.0002 13.5001 12.4322 11.0748C12.4322 8.84468 9.76115 6.36383 6.46621 6.36383Z" fill="#3079EC"/>
<path d="M12.6835 3.27505C12.6835 4.31454 11.8884 5.2499 10.7338 5.56297C11.2227 4.70047 11.3221 3.73694 11.2244 2.87381C11.1439 2.16314 10.9272 1.49296 10.6606 0.968238C11.8547 1.26098 12.6835 2.21374 12.6835 3.27505Z" fill="#3079EC" stroke="#3079EC" stroke-width="0.77052" stroke-linecap="round"/>
<path d="M16.3302 10.9689C16.3302 8.41985 13.1818 6.04578 9.8869 6.04578C10.3337 6.83386 14.8337 9.33386 12.8337 11.8339C14.0002 13.0004 16.3302 12.5004 16.3302 10.9689Z" fill="#3079EC"/>
</svg>
