<svg width="87" height="59" viewBox="0 0 87 59" fill="none" xmlns="http://www.w3.org/2000/svg">
<path fill-rule="evenodd" clip-rule="evenodd" d="M19.8755 26.6704H29.3879V23.6564C29.3879 23.2053 29.0842 22.8364 28.7132 22.8364H20.4321C20.1261 22.8364 19.8755 23.1407 19.8755 23.5131V26.6704Z" fill="#B9CAE8"/>
<path fill-rule="evenodd" clip-rule="evenodd" d="M57.8922 39.2267V48.6215C57.8922 49.88 58.7805 50.9097 59.8657 50.9097H77.7564C78.8432 50.9097 79.7299 49.88 79.7299 48.6215V39.2267C79.7299 37.9682 78.8432 36.9386 77.7564 36.9386H59.866C58.7791 36.9386 57.8924 37.9682 57.8924 39.2267" fill="#B9CAE8"/>
<path fill-rule="evenodd" clip-rule="evenodd" d="M59.7987 43.9251C59.7987 43.9977 59.9068 44.0572 60.0375 44.0572H77.7658C77.897 44.0572 78.0046 43.9977 78.0046 43.9251C78.0046 43.8524 77.897 43.7927 77.7658 43.7927H60.0375C59.9068 43.7927 59.7987 43.8522 59.7987 43.9251Z" fill="#E1E9F6"/>
<path fill-rule="evenodd" clip-rule="evenodd" d="M60.5629 42.5473C60.8151 42.788 61.1526 42.9188 61.5012 42.9109C61.8498 42.9029 62.181 42.7569 62.422 42.505L64.7745 40.0421C64.9971 39.7869 65.1127 39.4557 65.0973 39.1175C65.0819 38.7792 64.9367 38.4599 64.6919 38.226C64.447 37.9921 64.1215 37.8615 63.7828 37.8616C63.4442 37.8616 63.1187 37.9922 62.8739 38.2261L60.5211 40.6893C60.2804 40.9416 60.1497 41.2791 60.1577 41.6277C60.1657 41.9763 60.3117 42.3075 60.5637 42.5484" fill="#AABCDC"/>
<path d="M60.8726 42.2232C61.0386 42.3815 61.2606 42.4674 61.4899 42.462C61.7192 42.4567 61.937 42.3605 62.0954 42.1946L64.4479 39.7314C64.6062 39.5656 64.6923 39.3436 64.687 39.1143C64.6817 38.885 64.5855 38.6673 64.4197 38.5089C64.2538 38.3505 64.0318 38.2645 63.8026 38.2697C63.5733 38.275 63.3555 38.3712 63.1971 38.537L60.8443 41.0002C60.6861 41.1661 60.6002 41.388 60.6056 41.6172C60.6109 41.8464 60.7071 42.0641 60.8729 42.2224" fill="#F9CD55"/>
<path d="M60.8729 42.223C60.7071 42.0647 60.6109 41.847 60.6056 41.6178C60.6002 41.3886 60.6861 41.1667 60.8443 41.0008L62.0116 39.7784L63.2626 40.9739L62.0956 42.1961C61.9372 42.3619 61.7195 42.4581 61.4902 42.4635C61.2609 42.4688 61.0389 42.383 60.8729 42.2247" fill="#F44D11"/>
<path d="M64.4497 39.7324L63.2636 40.9746L62.6432 40.3814L64.4257 38.5154C64.5895 38.6743 64.6839 38.8914 64.6884 39.1195C64.6929 39.3477 64.6071 39.5684 64.4497 39.7336" fill="#F9CD55"/>
<path d="M62.0973 42.1954C61.9395 42.3603 61.723 42.4563 61.4948 42.4623C61.2667 42.4683 61.0454 42.3839 60.8792 42.2274L62.6433 40.3801L63.2637 40.9744L62.0973 42.1954Z" fill="#F44D11"/>
<path fill-rule="evenodd" clip-rule="evenodd" d="M62.2095 39.9674L60.9885 41.2456C60.964 41.2688 60.9445 41.2968 60.9311 41.3278C60.9178 41.3587 60.9109 41.3921 60.9108 41.4258C60.9108 41.4595 60.9176 41.4929 60.9308 41.5239C60.944 41.5549 60.9634 41.5829 60.9878 41.6062C61.0122 41.6295 61.0411 41.6476 61.0727 41.6594C61.1043 41.6712 61.138 41.6764 61.1716 41.6748C61.2053 41.6732 61.2383 41.6647 61.2687 41.6499C61.299 41.6352 61.326 41.6144 61.348 41.5889L62.5696 40.3107L62.2095 39.9674Z" fill="#FFA484"/>
<path fill-rule="evenodd" clip-rule="evenodd" d="M62.7083 39.4448L62.2101 39.9667L62.5702 40.31L63.069 39.788C63.1116 39.7396 63.1338 39.6767 63.131 39.6123C63.1281 39.548 63.1005 39.4872 63.0538 39.4428C63.0072 39.3984 62.9451 39.3738 62.8807 39.3741C62.8163 39.3745 62.7545 39.3998 62.7083 39.4448Z" fill="#FFEBBC"/>
<path fill-rule="evenodd" clip-rule="evenodd" d="M64.5725 42.546C64.8247 42.7867 65.1622 42.9175 65.5108 42.9096C65.8594 42.9016 66.1906 42.7557 66.4316 42.5037L68.7846 40.0408C69.0094 39.7858 69.1268 39.4538 69.1122 39.1143C69.0976 38.7747 68.9522 38.454 68.7064 38.2192C68.4606 37.9845 68.1335 37.854 67.7937 37.855C67.4538 37.8561 67.1275 37.9886 66.8832 38.2249L64.5307 40.688C64.29 40.9403 64.1593 41.2778 64.1673 41.6264C64.1753 41.975 64.3213 42.3062 64.5733 42.5472" fill="#AABCDC"/>
<path d="M64.8838 42.2241C65.0498 42.3824 65.2718 42.4683 65.5011 42.4629C65.7303 42.4575 65.9481 42.3614 66.1065 42.1955L68.459 39.7323C68.538 39.6503 68.6001 39.5536 68.6416 39.4475C68.6831 39.3415 68.7033 39.2283 68.7009 39.1144C68.6986 39.0006 68.6738 38.8883 68.6279 38.7841C68.582 38.6798 68.516 38.5857 68.4337 38.507C68.3513 38.4284 68.2543 38.3668 68.1481 38.3257C68.0418 38.2847 67.9285 38.2651 67.8147 38.2679C67.7009 38.2708 67.5887 38.2961 67.4847 38.3425C67.3807 38.3888 67.2868 38.4552 67.2085 38.5379L64.8555 41.0011C64.777 41.0832 64.7154 41.1799 64.6743 41.2858C64.6333 41.3916 64.6135 41.5046 64.6161 41.6181C64.6188 41.7317 64.6438 41.8435 64.6898 41.9474C64.7358 42.0512 64.8018 42.145 64.8841 42.2233" fill="#F9CD55"/>
<path d="M64.8832 42.223C64.8009 42.1447 64.7349 42.0509 64.6889 41.9471C64.6429 41.8433 64.6179 41.7314 64.6152 41.6178C64.6126 41.5043 64.6323 41.3914 64.6734 41.2855C64.7145 41.1796 64.776 41.0829 64.8546 41.0008L66.0218 39.7784L67.2731 40.9731L66.1056 42.1952C65.9472 42.3611 65.7294 42.4573 65.5001 42.4626C65.2709 42.468 65.0489 42.3821 64.8829 42.2238" fill="#F44D11"/>
<path d="M68.4588 39.733L67.2732 40.9752L66.6528 40.382L68.4339 38.5154C68.5978 38.6742 68.6924 38.8913 68.6969 39.1195C68.7014 39.3477 68.6155 39.5685 68.4579 39.7336" fill="#F9CD55"/>
<path d="M66.1069 42.1954C65.9492 42.3603 65.7326 42.4563 65.5045 42.4623C65.2763 42.4683 65.055 42.3839 64.8888 42.2274L66.6535 40.3801L67.2739 40.9733L66.1069 42.1954Z" fill="#F44D11"/>
<path fill-rule="evenodd" clip-rule="evenodd" d="M66.2205 39.9674L64.9989 41.2456C64.957 41.2941 64.9354 41.3567 64.9385 41.4207C64.9416 41.4846 64.9691 41.5449 65.0155 41.589C65.0618 41.6332 65.1234 41.6578 65.1874 41.6577C65.2514 41.6577 65.3129 41.6331 65.3593 41.5889L66.5806 40.3107L66.2205 39.9674Z" fill="#FFA484"/>
<path fill-rule="evenodd" clip-rule="evenodd" d="M66.718 39.4448L66.2197 39.9667L66.5798 40.31L67.0786 39.788C67.1212 39.7396 67.1434 39.6767 67.1406 39.6123C67.1378 39.548 67.1101 39.4872 67.0635 39.4428C67.0168 39.3984 66.9547 39.3738 66.8903 39.3741C66.8259 39.3745 66.7641 39.3998 66.718 39.4448Z" fill="#FFEBBC"/>
<path fill-rule="evenodd" clip-rule="evenodd" d="M68.5834 42.5476C68.8357 42.7884 69.1732 42.9191 69.5217 42.9112C69.8703 42.9033 70.2015 42.7573 70.4425 42.5053L72.795 40.0424C73.0122 39.7865 73.1233 39.4573 73.1057 39.1221C73.088 38.7869 72.943 38.4712 72.7002 38.2394C72.4574 38.0077 72.1352 37.8775 71.7996 37.8756C71.4639 37.8736 71.1402 37.9999 70.8947 38.2288L68.5422 40.692C68.3015 40.9442 68.1708 41.2818 68.1788 41.6303C68.1868 41.9789 68.3328 42.3101 68.5849 42.5511" fill="#AABCDC"/>
<path d="M68.8924 42.2229C69.0585 42.3811 69.2805 42.467 69.5099 42.4617C69.7392 42.4563 69.957 42.3601 70.1154 42.1943L72.4685 39.7311C72.6231 39.5645 72.7059 39.3438 72.699 39.1166C72.6921 38.8895 72.5961 38.6742 72.4317 38.5172C72.2674 38.3603 72.0478 38.2744 71.8206 38.278C71.5934 38.2816 71.3767 38.3746 71.2175 38.5367L68.8644 40.9999C68.7062 41.1658 68.6204 41.3877 68.6258 41.6169C68.6311 41.846 68.7273 42.0637 68.893 42.222" fill="#F9CD55"/>
<path d="M68.892 42.223C68.7263 42.0646 68.6302 41.847 68.6248 41.6178C68.6194 41.3887 68.7053 41.1667 68.8634 41.0008L70.0312 39.7784L71.282 40.9731L70.1145 42.1952C69.956 42.3611 69.7382 42.4573 69.5089 42.4626C69.2796 42.468 69.0575 42.3821 68.8915 42.2238" fill="#F44D11"/>
<path d="M72.4693 39.7324L71.2837 40.9746L70.6625 40.3814L72.4452 38.5154C72.6092 38.6742 72.7037 38.8913 72.7082 39.1195C72.7128 39.3477 72.6268 39.5685 72.4693 39.7336" fill="#F9CD55"/>
<path d="M70.116 42.1954C69.9581 42.3604 69.7415 42.4563 69.5133 42.4623C69.2851 42.4683 69.0638 42.3839 68.8975 42.2274L70.6617 40.3801L71.2829 40.9733L70.116 42.1954Z" fill="#F44D11"/>
<path fill-rule="evenodd" clip-rule="evenodd" d="M70.2298 39.9674L69.0088 41.2456C68.9847 41.2689 68.9655 41.2969 68.9525 41.3278C68.9394 41.3587 68.9328 41.3919 68.9329 41.4254C68.933 41.4589 68.9399 41.4921 68.9531 41.5229C68.9663 41.5537 68.9857 41.5815 69.0099 41.6047C69.0342 41.6278 69.0629 41.6458 69.0943 41.6576C69.1257 41.6694 69.1591 41.6747 69.1926 41.6732C69.2261 41.6717 69.259 41.6635 69.2892 41.649C69.3195 41.6345 69.3465 41.6141 69.3686 41.5889L70.5899 40.3107L70.2298 39.9674Z" fill="#FFA484"/>
<path fill-rule="evenodd" clip-rule="evenodd" d="M70.7276 39.4448L70.2294 39.9667L70.59 40.31L71.0883 39.788C71.1309 39.7396 71.1531 39.6767 71.1503 39.6123C71.1474 39.548 71.1198 39.4872 71.0731 39.4428C71.0264 39.3984 70.9644 39.3738 70.9 39.3741C70.8355 39.3745 70.7738 39.3998 70.7276 39.4448Z" fill="#FFEBBC"/>
<path fill-rule="evenodd" clip-rule="evenodd" d="M72.5919 42.5477C72.8441 42.7884 73.1816 42.9192 73.5302 42.9113C73.8788 42.9033 74.21 42.7573 74.451 42.5054L76.8035 40.0425C76.924 39.9179 77.0188 39.7708 77.0822 39.6095C77.1457 39.4483 77.1766 39.276 77.1732 39.1028C77.1699 38.9295 77.1323 38.7586 77.0626 38.5999C76.9929 38.4412 76.8925 38.2979 76.7672 38.1782C76.6419 38.0584 76.4942 37.9646 76.3325 37.9022C76.1708 37.8398 75.9984 37.81 75.8251 37.8145C75.6519 37.819 75.4812 37.8577 75.323 37.9284C75.1648 37.9992 75.0221 38.1005 74.9032 38.2265L72.5501 40.6897C72.3094 40.942 72.1786 41.2794 72.1866 41.628C72.1945 41.9766 72.3405 42.3078 72.5924 42.5488" fill="#AABCDC"/>
<path d="M72.903 42.2229C73.069 42.3811 73.291 42.467 73.5203 42.4617C73.7495 42.4563 73.9673 42.3601 74.1257 42.1943L76.4791 39.7311C76.6336 39.5645 76.7164 39.3438 76.7095 39.1166C76.7027 38.8895 76.6067 38.6742 76.4423 38.5172C76.2779 38.3603 76.0584 38.2744 75.8312 38.278C75.6039 38.2816 75.3873 38.3746 75.228 38.5367L72.875 40.9999C72.7168 41.1658 72.631 41.3877 72.6363 41.6169C72.6417 41.846 72.7378 42.0637 72.9036 42.222" fill="#F9CD55"/>
<path d="M72.9026 42.223C72.7369 42.0646 72.6408 41.847 72.6354 41.6178C72.6301 41.3887 72.7159 41.1667 72.874 41.0008L74.0421 39.7784L75.2926 40.9731L74.1257 42.1952C73.9673 42.3611 73.7495 42.4573 73.5202 42.4626C73.2909 42.468 73.0689 42.3821 72.9029 42.2238" fill="#F44D11"/>
<path d="M76.4789 39.7324L75.2933 40.9746L74.6721 40.3814L76.4546 38.5154C76.6187 38.6741 76.7133 38.8913 76.7179 39.1195C76.7224 39.3477 76.6365 39.5684 76.4789 39.7336" fill="#F9CD55"/>
<path d="M74.1262 42.1954C73.9685 42.3603 73.7519 42.4563 73.5238 42.4623C73.2956 42.4683 73.0743 42.3839 72.9081 42.2274L74.6722 40.3801L75.2935 40.9733L74.1262 42.1954Z" fill="#F44D11"/>
<path fill-rule="evenodd" clip-rule="evenodd" d="M74.2401 39.9674L73.0191 41.2456C72.9772 41.2941 72.9556 41.3567 72.9587 41.4207C72.9618 41.4846 72.9893 41.5449 73.0357 41.589C73.082 41.6332 73.1436 41.6578 73.2076 41.6577C73.2716 41.6577 73.3331 41.6331 73.3795 41.5889L74.5999 40.3107L74.2401 39.9674Z" fill="#FFA484"/>
<path fill-rule="evenodd" clip-rule="evenodd" d="M74.7389 39.4448L74.2409 39.9667L74.6013 40.31L75.0998 39.788C75.1424 39.7396 75.1646 39.6767 75.1618 39.6123C75.159 39.548 75.1313 39.4872 75.0847 39.4428C75.038 39.3984 74.9759 39.3738 74.9115 39.3741C74.8471 39.3745 74.7853 39.3998 74.7391 39.4448" fill="#FFEBBC"/>
<path fill-rule="evenodd" clip-rule="evenodd" d="M60.5629 49.6712C60.8151 49.912 61.1526 50.0427 61.5012 50.0348C61.8498 50.0268 62.181 49.8809 62.422 49.6289L64.7745 47.1657C64.8964 47.0415 64.9925 46.8942 65.0571 46.7325C65.1216 46.5709 65.1534 46.398 65.1506 46.2239C65.1478 46.0498 65.1105 45.878 65.0407 45.7185C64.971 45.559 64.8702 45.4149 64.7443 45.2947C64.6184 45.1745 64.4699 45.0804 64.3073 45.018C64.1448 44.9557 63.9715 44.9262 63.7975 44.9314C63.6235 44.9366 63.4522 44.9763 63.2936 45.0482C63.1351 45.1201 62.9924 45.2228 62.8739 45.3503L60.5211 47.8132C60.2804 48.0655 60.1497 48.403 60.1577 48.7516C60.1657 49.1002 60.3117 49.4314 60.5637 49.6724" fill="#AABCDC"/>
<path d="M60.8726 49.3455C61.0386 49.5038 61.2606 49.5897 61.4899 49.5844C61.7192 49.579 61.937 49.4828 62.0954 49.3169L64.4479 46.854C64.5282 46.7722 64.5916 46.6753 64.6342 46.5689C64.6768 46.4625 64.6978 46.3486 64.696 46.234C64.6942 46.1193 64.6697 46.0062 64.6238 45.9012C64.5779 45.7961 64.5115 45.7012 64.4286 45.622C64.3457 45.5428 64.2479 45.4809 64.1409 45.4399C64.0338 45.3988 63.9197 45.3795 63.8051 45.3829C63.6905 45.3864 63.5777 45.4126 63.4733 45.4601C63.369 45.5075 63.2751 45.5752 63.1971 45.6593L60.8443 48.1245C60.6861 48.2904 60.6002 48.5123 60.6056 48.7415C60.6109 48.9706 60.7071 49.1883 60.8729 49.3466" fill="#F9CD55"/>
<path d="M60.8729 49.346C60.7071 49.1877 60.6109 48.97 60.6056 48.7408C60.6002 48.5116 60.6861 48.2897 60.8443 48.1238L62.0116 46.9017L63.2626 48.0964L62.0956 49.3182C61.9373 49.4841 61.7195 49.5804 61.4902 49.5857C61.2609 49.5911 61.0389 49.5052 60.8729 49.3468" fill="#F44D11"/>
<path d="M64.4488 46.8553L63.2626 48.0963L62.6423 47.5028L64.4247 45.6368C64.5886 45.7957 64.6831 46.0129 64.6876 46.2411C64.6921 46.4693 64.6062 46.69 64.4488 46.8553Z" fill="#F9CD55"/>
<path d="M62.0973 49.3187C61.9395 49.4836 61.7229 49.5794 61.4948 49.5854C61.2666 49.5913 61.0453 49.5069 60.8792 49.3504L62.6433 47.5033L63.2637 48.0968L62.0973 49.3187Z" fill="#F44D11"/>
<path fill-rule="evenodd" clip-rule="evenodd" d="M62.2104 47.0898L60.9894 48.3683C60.9649 48.3915 60.9454 48.4194 60.9321 48.4504C60.9187 48.4814 60.9118 48.5147 60.9117 48.5485C60.9117 48.5822 60.9185 48.6156 60.9317 48.6466C60.945 48.6776 60.9644 48.7056 60.9888 48.7289C61.0131 48.7522 61.042 48.7703 61.0736 48.782C61.1052 48.7938 61.1389 48.7991 61.1726 48.7974C61.2062 48.7958 61.2392 48.7874 61.2696 48.7726C61.2999 48.7578 61.3269 48.737 61.3489 48.7115L62.5705 47.433L62.2104 47.0898Z" fill="#FFA484"/>
<path fill-rule="evenodd" clip-rule="evenodd" d="M62.7083 46.5673L62.2101 47.0896L62.5702 47.4328L63.069 46.9111C63.1099 46.8625 63.1307 46.8002 63.1272 46.7367C63.1236 46.6733 63.0961 46.6137 63.0501 46.5699C63.0041 46.5261 62.9431 46.5015 62.8796 46.5012C62.8161 46.5008 62.7548 46.5247 62.7083 46.5679" fill="#FFEBBC"/>
<path fill-rule="evenodd" clip-rule="evenodd" d="M64.5725 49.6705C64.8247 49.9113 65.1622 50.042 65.5108 50.0341C65.8594 50.0262 66.1906 49.8802 66.4316 49.6282L68.7846 47.165C69.0079 46.9098 69.124 46.5783 69.1088 46.2396C69.0936 45.9009 68.9482 45.5812 68.703 45.347C68.4578 45.1129 68.1316 44.9825 67.7926 44.983C67.4535 44.9835 67.1278 45.1148 66.8832 45.3497L64.5307 47.8126C64.29 48.0648 64.1593 48.4023 64.1673 48.7509C64.1753 49.0995 64.3213 49.4307 64.5733 49.6717" fill="#AABCDC"/>
<path d="M64.8838 49.3464C65.0497 49.5047 65.2718 49.5906 65.5011 49.5853C65.7304 49.5799 65.9482 49.4837 66.1065 49.3178L68.459 46.8549C68.5375 46.7728 68.599 46.676 68.64 46.5701C68.6811 46.4642 68.7009 46.3513 68.6983 46.2378C68.6957 46.1243 68.6708 46.0124 68.6249 45.9085C68.5791 45.8046 68.5132 45.7107 68.4311 45.6323C68.349 45.5538 68.2523 45.4923 68.1464 45.4513C68.0405 45.4102 67.9276 45.3904 67.8141 45.393C67.7005 45.3956 67.5886 45.4205 67.4847 45.4664C67.3808 45.5122 67.287 45.5781 67.2085 45.6602L64.8555 48.1254C64.777 48.2074 64.7154 48.3041 64.6743 48.41C64.6333 48.5159 64.6135 48.6288 64.6161 48.7424C64.6188 48.8559 64.6438 48.9678 64.6898 49.0716C64.7358 49.1755 64.8018 49.2692 64.8841 49.3475" fill="#F9CD55"/>
<path d="M64.8832 49.346C64.8009 49.2677 64.7349 49.1739 64.6889 49.0701C64.6429 48.9663 64.6179 48.8544 64.6152 48.7408C64.6126 48.6273 64.6323 48.5143 64.6734 48.4085C64.7145 48.3026 64.776 48.2059 64.8546 48.1238L66.0218 46.9017L67.2731 48.0964L66.1056 49.3182C65.9472 49.4841 65.7295 49.5804 65.5002 49.5857C65.2709 49.5911 65.0488 49.5052 64.8829 49.3468" fill="#F44D11"/>
<path d="M68.4597 46.8546L67.2741 48.0956L66.6537 47.5022L68.4348 45.6359C68.5988 45.7947 68.6933 46.0119 68.6978 46.2402C68.7023 46.4684 68.6164 46.6892 68.4588 46.8543" fill="#F9CD55"/>
<path d="M66.1069 49.3187C65.9491 49.4836 65.7326 49.5794 65.5044 49.5854C65.2762 49.5913 65.055 49.5069 64.8888 49.3504L66.6535 47.5033L67.2739 48.0968L66.1069 49.3187Z" fill="#F44D11"/>
<path fill-rule="evenodd" clip-rule="evenodd" d="M66.2211 47.0898L64.9995 48.3683C64.9751 48.3916 64.9556 48.4196 64.9424 48.4506C64.9291 48.4816 64.9223 48.5149 64.9223 48.5487C64.9223 48.5824 64.9292 48.6157 64.9425 48.6467C64.9558 48.6777 64.9752 48.7057 64.9996 48.7289C65.024 48.7522 65.0529 48.7703 65.0845 48.782C65.1161 48.7938 65.1498 48.799 65.1835 48.7974C65.2171 48.7958 65.2501 48.7873 65.2805 48.7725C65.3108 48.7578 65.3378 48.737 65.3598 48.7115L66.5811 47.433L66.2211 47.0898Z" fill="#FFA484"/>
<path fill-rule="evenodd" clip-rule="evenodd" d="M66.718 46.5673L66.2197 47.0896L66.5798 47.4328L67.0786 46.9111C67.1195 46.8625 67.1403 46.8002 67.1368 46.7367C67.1333 46.6733 67.1057 46.6137 67.0597 46.5699C67.0137 46.5261 66.9527 46.5015 66.8892 46.5012C66.8257 46.5008 66.7645 46.5247 66.718 46.5679" fill="#FFEBBC"/>
<path fill-rule="evenodd" clip-rule="evenodd" d="M68.5834 49.6706C68.8357 49.9113 69.1732 50.042 69.5217 50.0341C69.8703 50.0262 70.2015 49.8802 70.4425 49.6282L72.795 47.165C73.0267 46.9114 73.1499 46.5772 73.1382 46.2339C73.1265 45.8906 72.9809 45.5655 72.7325 45.3282C72.4841 45.091 72.1527 44.9604 71.8092 44.9644C71.4657 44.9685 71.1374 45.1069 70.8947 45.35L68.5422 47.8129C68.3015 48.0651 68.1708 48.4027 68.1788 48.7512C68.1868 49.0998 68.3328 49.431 68.5849 49.672" fill="#AABCDC"/>
<path d="M68.8922 49.3466C69.0582 49.5049 69.2803 49.5909 69.5096 49.5855C69.739 49.5801 69.9568 49.4839 70.1152 49.318L72.4683 46.8551C72.6267 46.6892 72.7127 46.4671 72.7075 46.2378C72.7022 46.0085 72.606 45.7906 72.4401 45.6322C72.2742 45.4738 72.0522 45.3877 71.8228 45.393C71.5935 45.3983 71.3757 45.4945 71.2172 45.6604L68.8653 48.1256C68.7072 48.2915 68.6213 48.5134 68.6267 48.7426C68.6321 48.9717 68.7282 49.1894 68.8939 49.3477" fill="#F9CD55"/>
<path d="M68.892 49.346C68.7263 49.1876 68.6302 48.97 68.6248 48.7408C68.6194 48.5116 68.7053 48.2897 68.8634 48.1238L70.0312 46.9017L71.282 48.0964L70.1145 49.3182C69.9561 49.4842 69.7382 49.5804 69.5089 49.5857C69.2795 49.5911 69.0574 49.5052 68.8915 49.3468" fill="#F44D11"/>
<path d="M72.4693 46.8553L71.2837 48.0963L70.6625 47.5028L72.4452 45.6368C72.6092 45.7956 72.7038 46.0128 72.7083 46.2411C72.7128 46.4693 72.6269 46.6901 72.4693 46.8553Z" fill="#F9CD55"/>
<path d="M70.116 49.3187C69.9581 49.4836 69.7415 49.5795 69.5133 49.5854C69.2851 49.5914 69.0638 49.5069 68.8975 49.3504L70.6617 47.5033L71.2829 48.0968L70.116 49.3187Z" fill="#F44D11"/>
<path fill-rule="evenodd" clip-rule="evenodd" d="M70.2298 47.0898L69.0088 48.3683C68.9847 48.3916 68.9655 48.4195 68.9525 48.4504C68.9394 48.4813 68.9328 48.5145 68.9329 48.548C68.933 48.5816 68.9399 48.6147 68.9531 48.6455C68.9663 48.6764 68.9857 48.7042 69.0099 48.7273C69.0342 48.7505 69.0629 48.7685 69.0943 48.7802C69.1257 48.792 69.1591 48.7973 69.1926 48.7958C69.2261 48.7944 69.259 48.7861 69.2892 48.7717C69.3195 48.7572 69.3465 48.7367 69.3686 48.7115L70.5899 47.433L70.2298 47.0898Z" fill="#FFA484"/>
<path fill-rule="evenodd" clip-rule="evenodd" d="M70.7276 46.5673L70.2294 47.0896L70.59 47.4328L71.0883 46.9111C71.1292 46.8625 71.15 46.8002 71.1464 46.7367C71.1429 46.6733 71.1153 46.6137 71.0693 46.5699C71.0233 46.5261 70.9624 46.5015 70.8989 46.5012C70.8354 46.5008 70.7741 46.5247 70.7276 46.5679" fill="#FFEBBC"/>
<path fill-rule="evenodd" clip-rule="evenodd" d="M72.5919 49.6702C72.8441 49.9109 73.1816 50.0416 73.5302 50.0337C73.8788 50.0258 74.21 49.8798 74.451 49.6278L76.8035 47.1646C76.9227 47.0399 77.0161 46.8928 77.0785 46.7319C77.1409 46.571 77.171 46.3994 77.167 46.2269C77.1631 46.0544 77.1252 45.8844 77.0555 45.7265C76.9859 45.5686 76.8858 45.426 76.761 45.3068C76.6362 45.1876 76.4892 45.0942 76.3283 45.0318C76.1674 44.9694 75.9958 44.9393 75.8233 44.9433C75.6508 44.9472 75.4807 44.9851 75.3229 45.0548C75.165 45.1244 75.0224 45.2245 74.9032 45.3493L72.5501 47.8122C72.3094 48.0644 72.1786 48.4019 72.1866 48.7505C72.1945 49.0991 72.3405 49.4303 72.5924 49.6713" fill="#AABCDC"/>
<path d="M72.903 49.3466C73.0689 49.5049 73.291 49.5908 73.5203 49.5855C73.7496 49.5801 73.9673 49.4839 74.1257 49.318L76.4791 46.8551C76.6375 46.6892 76.7235 46.4671 76.7182 46.2378C76.713 46.0085 76.6168 45.7906 76.4509 45.6322C76.285 45.4738 76.063 45.3877 75.8336 45.393C75.6043 45.3983 75.3865 45.4945 75.228 45.6604L72.875 48.1256C72.7168 48.2915 72.631 48.5134 72.6363 48.7426C72.6417 48.9717 72.7378 49.1894 72.9036 49.3477" fill="#F9CD55"/>
<path d="M72.9026 49.346C72.7369 49.1876 72.6408 48.97 72.6354 48.7408C72.6301 48.5116 72.7159 48.2897 72.874 48.1238L74.0421 46.9017L75.2926 48.0964L74.1257 49.3182C73.9673 49.4841 73.7495 49.5804 73.5202 49.5857C73.2909 49.5911 73.0689 49.5052 72.9029 49.3468" fill="#F44D11"/>
<path d="M76.4789 46.8553L75.2933 48.0963L74.6721 47.5028L76.4546 45.6368C76.6186 45.7956 76.7132 46.0128 76.7178 46.241C76.7223 46.4693 76.6365 46.6901 76.4789 46.8553Z" fill="#F9CD55"/>
<path d="M74.1262 49.3187C73.9684 49.4836 73.7519 49.5794 73.5237 49.5854C73.2955 49.5913 73.0743 49.5069 72.9081 49.3504L74.6722 47.5033L75.2935 48.0968L74.1262 49.3187Z" fill="#F44D11"/>
<path fill-rule="evenodd" clip-rule="evenodd" d="M74.2407 47.0898L73.0197 48.3683C72.9953 48.3916 72.9758 48.4196 72.9626 48.4506C72.9493 48.4816 72.9425 48.5149 72.9425 48.5487C72.9425 48.5824 72.9494 48.6157 72.9627 48.6467C72.976 48.6777 72.9954 48.7057 73.0198 48.7289C73.0442 48.7522 73.0731 48.7703 73.1047 48.782C73.1363 48.7938 73.17 48.799 73.2037 48.7974C73.2373 48.7958 73.2703 48.7873 73.3007 48.7725C73.331 48.7578 73.358 48.737 73.38 48.7115L74.6005 47.433L74.2407 47.0898Z" fill="#FFA484"/>
<path fill-rule="evenodd" clip-rule="evenodd" d="M74.7389 46.5677L74.2409 47.0899L74.6013 47.4332L75.099 46.912C75.1398 46.8634 75.1606 46.8011 75.1571 46.7377C75.1536 46.6743 75.126 46.6146 75.08 46.5708C75.034 46.5271 74.9731 46.5025 74.9096 46.5021C74.8461 46.5017 74.7848 46.5256 74.7383 46.5688" fill="#FFEBBC"/>
<path fill-rule="evenodd" clip-rule="evenodd" d="M58.5497 41.6871V46.1613C58.5497 46.2046 58.5669 46.2461 58.5976 46.2768C58.6282 46.3074 58.6697 46.3246 58.7131 46.3246C58.7564 46.3246 58.7979 46.3074 58.8285 46.2768C58.8592 46.2461 58.8764 46.2046 58.8764 46.1613V41.6871C58.8764 41.6438 58.8592 41.6023 58.8285 41.5716C58.7979 41.541 58.7564 41.5238 58.7131 41.5238C58.6697 41.5238 58.6282 41.541 58.5976 41.5716C58.5669 41.6023 58.5497 41.6438 58.5497 41.6871Z" fill="#E1E9F6"/>
<path fill-rule="evenodd" clip-rule="evenodd" d="M78.7823 41.6874V46.1616C78.7823 46.205 78.7996 46.2466 78.8303 46.2773C78.8609 46.3079 78.9026 46.3252 78.9459 46.3252C78.9893 46.3252 79.031 46.3079 79.0616 46.2773C79.0923 46.2466 79.1096 46.205 79.1096 46.1616V41.6874C79.1096 41.644 79.0923 41.6024 79.0616 41.5717C79.031 41.541 78.9893 41.5238 78.9459 41.5238C78.9026 41.5238 78.8609 41.541 78.8303 41.5717C78.7996 41.6024 78.7823 41.644 78.7823 41.6874Z" fill="#E1E9F6"/>
<path d="M41.5233 10.9779H31.3159V12.1285H41.5233V10.9779Z" fill="#B9CAE8"/>
<path fill-rule="evenodd" clip-rule="evenodd" d="M31.2957 10.7972H30.1153V12.3088H31.2957C31.3707 12.3086 31.4427 12.2787 31.4958 12.2256C31.5489 12.1726 31.5788 12.1007 31.5791 12.0256V11.0804C31.5789 11.0053 31.549 10.9333 31.4958 10.8803C31.4427 10.8272 31.3708 10.7973 31.2957 10.7972Z" fill="#B9CAE8"/>
<path fill-rule="evenodd" clip-rule="evenodd" d="M35.5606 19.6128H43.8594C46.0154 19.6128 47.7804 21.4574 47.7804 23.7117V46.7036C47.7804 48.9585 46.0154 50.8022 43.8594 50.8022H35.5606C33.4038 50.8022 31.639 48.9585 31.639 46.7036V23.7117C31.639 21.4574 33.4038 19.6128 35.5606 19.6128Z" fill="#4CB5FF"/>
<path fill-rule="evenodd" clip-rule="evenodd" d="M35.5606 19.6128H40.7221C42.879 19.6128 44.6437 21.4574 44.6437 23.7117V46.7036C44.6437 48.9585 42.879 50.8022 40.7221 50.8022H35.5606C33.4038 50.8022 31.639 48.9585 31.639 46.7036V23.7117C31.639 21.4574 33.4038 19.6128 35.5606 19.6128Z" fill="#83C9FF"/>
<path d="M43.1737 13.7311H36.2466V15.0817H43.1737V13.7311Z" fill="#B9CAE8"/>
<path fill-rule="evenodd" clip-rule="evenodd" d="M35.1752 19.6127H44.2443C44.6012 19.6116 44.9432 19.4693 45.1956 19.2169C45.448 18.9645 45.5902 18.6225 45.5912 18.2655V16.4287C45.5902 16.0718 45.448 15.7298 45.1956 15.4773C44.9432 15.2249 44.6012 15.0826 44.2443 15.0816H35.1752C34.8182 15.0826 34.4761 15.2248 34.2237 15.4772C33.9712 15.7296 33.8289 16.0717 33.8278 16.4287V18.2655C33.8289 18.6225 33.9712 18.9646 34.2237 19.217C34.4761 19.4695 34.8182 19.6117 35.1752 19.6127Z" fill="#B9CAE8"/>
<path fill-rule="evenodd" clip-rule="evenodd" d="M35.5319 19.6127H42.568C42.9249 19.6117 43.267 19.4694 43.5194 19.217C43.7717 18.9646 43.9139 18.6225 43.9148 18.2655V16.4287C43.9139 16.0718 43.7717 15.7297 43.5194 15.4773C43.267 15.2248 42.9249 15.0826 42.568 15.0816H35.5319C35.1749 15.0825 34.8328 15.2247 34.5803 15.4771C34.3278 15.7296 34.1855 16.0717 34.1845 16.4287V18.2655C34.1855 18.6226 34.3278 18.9647 34.5803 19.2171C34.8328 19.4696 35.1749 19.6118 35.5319 19.6127Z" fill="#E3ECFF"/>
<path d="M47.7811 28.217H31.9846V42.5945H47.7811V28.217Z" fill="#E8EFFF"/>
<path d="M47.7818 28.217H44.645V42.5945H47.7818V28.217Z" fill="#C8D9FA"/>
<path fill-rule="evenodd" clip-rule="evenodd" d="M34.2308 24.6023C34.4503 24.6027 34.6606 24.69 34.8158 24.8451C34.971 25.0003 35.0584 25.2106 35.0588 25.43V28.2184H33.4031V25.43C33.4035 25.2106 33.4909 25.0004 33.646 24.8452C33.8011 24.6901 34.0114 24.6027 34.2308 24.6023Z" fill="#BCE1FF"/>
<path fill-rule="evenodd" clip-rule="evenodd" d="M35.0579 28.2179V37.2804C35.0539 37.4973 34.9649 37.704 34.8101 37.8559C34.6553 38.0079 34.447 38.093 34.23 38.093C34.0131 38.093 33.8048 38.0079 33.65 37.8559C33.4952 37.704 33.4062 37.4973 33.4022 37.2804V28.2179H35.0579Z" fill="white"/>
<path fill-rule="evenodd" clip-rule="evenodd" d="M36.4251 14.125H42.9935C43.5904 14.125 44.2356 13.6153 44.0803 13.0381L43.405 10.5563C43.248 9.98028 42.9162 9.47089 42.3182 9.47089H37.044C36.4471 9.47089 36.103 9.97714 35.9571 10.5563L35.3376 13.0381C35.1946 13.6176 35.8264 14.125 36.4245 14.125" fill="#B9CAE8"/>
<path fill-rule="evenodd" clip-rule="evenodd" d="M36.7718 14.125H41.4191C42.016 14.125 42.6615 13.6153 42.5059 13.0381L41.8306 10.5563C41.6739 9.98028 41.3421 9.47089 40.7438 9.47089H37.3896C36.7927 9.47089 36.4486 9.97714 36.3028 10.5563L35.685 13.0392C35.542 13.6187 36.1738 14.1261 36.7718 14.1261" fill="#E3ECFF"/>
<path d="M40.8709 11.2452H31.5785V11.5898H40.8709V11.2452Z" fill="#E3ECFF"/>
<path fill-rule="evenodd" clip-rule="evenodd" d="M51.9713 28.2837H63.0659C64.5046 28.2837 65.6813 30.2409 65.6813 31.6796V48.2586C65.6813 49.6973 64.5046 50.874 63.0659 50.874H51.9713C50.5329 50.874 49.356 49.6973 49.356 48.2586V31.679C49.356 30.2404 50.5329 28.2831 51.9713 28.2831" fill="#5074B0"/>
<path fill-rule="evenodd" clip-rule="evenodd" d="M51.9713 28.2837H60.1554C61.0973 29.1103 62.012 30.5026 62.064 31.7849C62.0855 32.302 62.064 48.3321 62.064 48.3321C62.064 48.3321 61.9167 49.6292 60.8092 50.61C60.7 50.7064 60.599 50.7942 60.5049 50.874H51.9713C50.5329 50.874 49.356 49.6973 49.356 48.2586V31.679C49.356 30.2404 50.5329 28.2831 51.9713 28.2831" fill="#6C8AC5"/>
<path fill-rule="evenodd" clip-rule="evenodd" d="M51.9713 28.2831H60.1554C60.2449 28.3621 60.335 28.4459 60.4234 28.5343H51.0809C51.3592 28.3755 51.659 28.2831 51.9713 28.2831Z" fill="#5074B0"/>
<path fill-rule="evenodd" clip-rule="evenodd" d="M51.3074 28.2829H63.7309C63.809 28.2827 63.8838 28.2516 63.9391 28.1965C63.9943 28.1414 64.0256 28.0666 64.0261 27.9886V27.3548C64.0259 27.2765 63.9948 27.2015 63.9394 27.1461C63.8841 27.0907 63.8091 27.0595 63.7309 27.0593H51.3074C51.2291 27.0595 51.1541 27.0907 51.0987 27.1461C51.0434 27.2014 51.0122 27.2765 51.012 27.3548V27.9886C51.0121 28.0669 51.0433 28.1419 51.0987 28.1973C51.154 28.2527 51.2291 28.2839 51.3074 28.284" fill="#E3ECFF"/>
<path fill-rule="evenodd" clip-rule="evenodd" d="M51.5699 27.06H63.4659V23.9595C63.4653 23.736 63.3763 23.5218 63.2182 23.3637C63.0602 23.2056 62.846 23.1165 62.6225 23.1158H52.2658C52.0811 23.1164 51.9042 23.1901 51.7738 23.3209C51.6433 23.4516 51.57 23.6287 51.5699 23.8134V27.06Z" fill="#B9CAE8"/>
<path fill-rule="evenodd" clip-rule="evenodd" d="M61.0828 23.1158H52.2658C51.8834 23.1158 51.5699 23.5071 51.5699 23.9856V26.542H52.3118V24.168C52.3118 23.9736 52.4391 23.8145 52.595 23.8145C52.7509 23.8145 52.8776 23.9736 52.8776 24.168V26.542H53.5145V24.168C53.5145 23.9736 53.6415 23.8145 53.7971 23.8145C53.9527 23.8145 54.0803 23.9736 54.0803 24.168V26.542H54.7169V24.168C54.7169 23.9736 54.8442 23.8145 54.9998 23.8145C55.1554 23.8145 55.2827 23.9736 55.2827 24.168V26.542H55.9194V24.168C55.9194 23.9736 56.0466 23.8145 56.2025 23.8145C56.3584 23.8145 56.4854 23.9736 56.4854 24.168V26.542H57.1221V24.168C57.1221 23.9736 57.2493 23.8145 57.4049 23.8145C57.5605 23.8145 57.6878 23.9736 57.6878 24.168V26.542H58.3245V24.168C58.3245 23.9736 58.452 23.8145 58.6073 23.8145C58.7627 23.8145 58.8905 23.9736 58.8905 24.168V26.542H59.5272V24.168C59.5272 23.9736 59.6542 23.8145 59.8101 23.8145C59.9659 23.8145 60.0926 23.9736 60.0926 24.168V26.542H61.0828V23.1158Z" fill="#E3ECFF"/>
<path d="M65.6816 33.3546H49.356V47.7398H65.6816V33.3546Z" fill="#BA3F0D"/>
<path fill-rule="evenodd" clip-rule="evenodd" d="M49.3038 33.3546H62.0722C62.078 36.9158 62.0682 45.4274 62.0651 47.7398H49.3038V33.3546Z" fill="#EC6632"/>
<path fill-rule="evenodd" clip-rule="evenodd" d="M52.7725 30.3499C53.0908 30.3511 53.3956 30.4781 53.6206 30.7031C53.8457 30.9281 53.9726 31.2329 53.9738 31.5512V41.4651C53.9738 41.784 53.8471 42.0899 53.6216 42.3154C53.3961 42.5409 53.0903 42.6675 52.7714 42.6675C52.4525 42.6675 52.1466 42.5409 51.9211 42.3154C51.6957 42.0899 51.569 41.784 51.569 41.4651V31.5517C51.5702 31.2335 51.6971 30.9287 51.9221 30.7036C52.1472 30.4786 52.452 30.3517 52.7702 30.3505" fill="#94ADD9"/>
<path fill-rule="evenodd" clip-rule="evenodd" d="M53.9747 33.3546V41.4649C53.9747 41.7838 53.848 42.0896 53.6225 42.3151C53.397 42.5406 53.0912 42.6673 52.7723 42.6673C52.4534 42.6673 52.1476 42.5406 51.9221 42.3151C51.6966 42.0896 51.5699 41.7838 51.5699 41.4649V33.3546H53.9747Z" fill="#FF8B61"/>
<path d="M62.0674 44.2993H49.3038V46.3678H62.0674V44.2993Z" fill="#6C8AC5"/>
<path d="M65.6816 44.2993H62.0667V46.4024H65.6816V44.2993Z" fill="#5074B0"/>
<path fill-rule="evenodd" clip-rule="evenodd" d="M20.196 28.0177H29.0674V49.1481C29.0663 49.536 28.9117 49.9077 28.6374 50.182C28.3631 50.4562 27.9914 50.6108 27.6036 50.612H21.8168C21.3874 50.6107 20.9759 50.4396 20.6722 50.136C20.3685 49.8323 20.1973 49.4208 20.196 48.9914V28.0177Z" fill="#FF671B"/>
<path fill-rule="evenodd" clip-rule="evenodd" d="M20.196 28.0177H28.2045V48.5972C28.2045 49.7056 27.5466 50.612 26.7406 50.612H21.8168C20.9256 50.612 20.196 49.6083 20.196 48.381V28.0177Z" fill="#FF8045"/>
<path d="M29.0671 27.5641H20.196V28.3086H29.0671V27.5641Z" fill="#FF671B"/>
<path fill-rule="evenodd" clip-rule="evenodd" d="M19.8529 27.5653H29.411C29.47 27.567 29.5272 27.5452 29.5702 27.5047C29.6131 27.4642 29.6381 27.4083 29.6399 27.3494V26.886C29.6381 26.827 29.6131 26.7712 29.5702 26.7307C29.5272 26.6902 29.47 26.6684 29.411 26.6701H19.8529C19.7939 26.6684 19.7367 26.6902 19.6938 26.7307C19.6509 26.7712 19.6258 26.827 19.6241 26.886V27.3494C19.6258 27.4083 19.6509 27.4642 19.6938 27.5047C19.7367 27.5452 19.7939 27.567 19.8529 27.5653Z" fill="#B9CAE8"/>
<path fill-rule="evenodd" clip-rule="evenodd" d="M20.0823 26.6705H29.3876V23.8389C29.3876 23.3879 29.0839 23.0189 28.7129 23.0189H20.6404C20.3343 23.0189 20.0838 23.1465 20.0838 23.6956L20.0823 26.6705Z" fill="#E3ECFF"/>
<path d="M29.0674 34.869H20.196V43.7925H29.0674V34.869Z" fill="#C8D9F5"/>
<path d="M28.2039 34.869H20.454V43.7925H28.2039V34.869Z" fill="#DFE8F7"/>
<path fill-rule="evenodd" clip-rule="evenodd" d="M22.646 43.6163V45.7451C22.646 46.2259 22.3491 46.6192 21.9859 46.6192C21.6226 46.6192 21.3257 46.2259 21.3257 45.7451V32.6192C21.3257 32.1387 21.6229 31.7451 21.9859 31.7451C22.3488 31.7451 22.646 32.1387 22.646 32.6192V43.6163Z" fill="#FB9E72"/>
<path fill-rule="evenodd" clip-rule="evenodd" d="M21.6128 24.0625C21.6541 24.0615 21.6941 24.0769 21.7241 24.1052C21.7541 24.1335 21.7717 24.1726 21.773 24.2138V25.8378C21.7706 25.8785 21.7527 25.9167 21.723 25.9447C21.6934 25.9726 21.6542 25.9882 21.6134 25.9882C21.5727 25.9882 21.5334 25.9726 21.5038 25.9447C21.4741 25.9167 21.4562 25.8785 21.4538 25.8378V24.2138C21.4549 24.1725 21.4723 24.1334 21.5022 24.1049C21.5321 24.0763 21.5721 24.0608 21.6134 24.0617M22.3679 24.0617C22.4093 24.0607 22.4494 24.0761 22.4795 24.1047C22.5095 24.1332 22.527 24.1724 22.5281 24.2138V25.8378C22.5257 25.8785 22.5078 25.9167 22.4781 25.9447C22.4485 25.9726 22.4092 25.9882 22.3685 25.9882C22.3277 25.9882 22.2885 25.9726 22.2589 25.9447C22.2292 25.9167 22.2113 25.8785 22.2089 25.8378V24.2138C22.2102 24.1728 22.2277 24.1339 22.2574 24.1056C22.2872 24.0773 22.3269 24.0618 22.3679 24.0625V24.0617ZM22.3673 24.0625C22.4086 24.0617 22.4486 24.0772 22.4785 24.1057C22.5084 24.1342 22.5258 24.1734 22.5269 24.2147V25.8387C22.5245 25.8794 22.5066 25.9176 22.477 25.9455C22.4473 25.9735 22.4081 25.989 22.3673 25.989C22.3266 25.989 22.2874 25.9735 22.2577 25.9455C22.2281 25.9176 22.2102 25.8794 22.2077 25.8387V24.2138C22.1877 24.0925 22.2166 23.9682 22.2882 23.8683C22.3598 23.7683 22.4681 23.7009 22.5894 23.6808C22.7107 23.6608 22.835 23.6897 22.935 23.7613C23.0349 23.8329 23.1024 23.9412 23.1224 24.0625H22.3673ZM23.1219 24.0625C23.1632 24.0617 23.2031 24.0772 23.233 24.1057C23.2629 24.1342 23.2803 24.1734 23.2815 24.2147V25.8387C23.2803 25.88 23.2629 25.9192 23.233 25.9478C23.2032 25.9763 23.1632 25.9919 23.1219 25.9911C23.0806 25.9919 23.0406 25.9763 23.0108 25.9478C22.9809 25.9192 22.9636 25.88 22.9626 25.8387V24.2138C22.9425 24.0926 22.9714 23.9683 23.043 23.8684C23.1145 23.7685 23.2228 23.701 23.3441 23.681C23.4654 23.6609 23.5896 23.6898 23.6895 23.7614C23.7895 23.833 23.8569 23.9413 23.8769 24.0625H23.1219ZM23.8764 24.0625C23.9177 24.0617 23.9576 24.0772 23.9875 24.1057C24.0174 24.1342 24.0348 24.1734 24.036 24.2147V25.8387C24.0335 25.8794 24.0157 25.9176 23.986 25.9455C23.9563 25.9735 23.9171 25.989 23.8764 25.989C23.8356 25.989 23.7964 25.9735 23.7668 25.9455C23.7371 25.9176 23.7192 25.8794 23.7168 25.8387V24.2138C23.6967 24.0925 23.7257 23.9682 23.7972 23.8683C23.8688 23.7683 23.9772 23.7009 24.0985 23.6808C24.2198 23.6608 24.3441 23.6897 24.444 23.7613C24.544 23.8329 24.6114 23.9412 24.6315 24.0625H23.8764ZM24.6309 24.0625C24.651 23.9412 24.7184 23.8329 24.8183 23.7613C24.9183 23.6897 25.0426 23.6608 25.1639 23.6808C25.2852 23.7009 25.3935 23.7683 25.4651 23.8683C25.5367 23.9682 25.5656 24.0925 25.5456 24.2138V25.8378C25.5438 25.879 25.5263 25.9178 25.4966 25.9463C25.4668 25.9748 25.4273 25.9907 25.3861 25.9907C25.345 25.9907 25.3054 25.9748 25.2757 25.9463C25.246 25.9178 25.2284 25.879 25.2267 25.8378V24.2138C25.2279 24.1727 25.2454 24.1338 25.2752 24.1054C25.305 24.0771 25.3448 24.0617 25.386 24.0625H24.6309ZM25.3854 24.0625C25.4267 24.0617 25.4667 24.0772 25.4966 24.1057C25.5265 24.1342 25.5439 24.1734 25.545 24.2147V25.8387C25.5439 25.88 25.5265 25.9192 25.4966 25.9478C25.4667 25.9763 25.4267 25.9919 25.3854 25.9911C25.3441 25.9919 25.3042 25.9763 25.2743 25.9478C25.2445 25.9192 25.2271 25.88 25.2261 25.8387V24.2138C25.206 24.0926 25.235 23.9683 25.3065 23.8684C25.3781 23.7685 25.4864 23.701 25.6076 23.681C25.7289 23.6609 25.8532 23.6898 25.9531 23.7614C26.053 23.833 26.1204 23.9413 26.1405 24.0625H25.3854ZM26.1399 24.0625C26.1812 24.0617 26.2212 24.0772 26.2511 24.1057C26.281 24.1342 26.2984 24.1734 26.2995 24.2147V25.8387C26.2971 25.8794 26.2792 25.9176 26.2495 25.9455C26.2199 25.9735 26.1807 25.989 26.1399 25.989C26.0992 25.989 26.06 25.9735 26.0303 25.9455C26.0006 25.9176 25.9828 25.8794 25.9803 25.8387V24.2138C25.9603 24.0925 25.9892 23.9682 26.0608 23.8683C26.1324 23.7683 26.2407 23.7009 26.362 23.6808C26.4833 23.6608 26.6076 23.6897 26.7076 23.7613C26.8075 23.8329 26.8749 23.9412 26.895 24.0625H26.1399ZM26.8944 24.0625C26.9357 24.0617 26.9757 24.0772 27.0056 24.1057C27.0355 24.1342 27.0529 24.1734 27.054 24.2147V25.8387C27.0523 25.8798 27.0347 25.9187 27.005 25.9472C26.9753 25.9756 26.9357 25.9915 26.8946 25.9915C26.8534 25.9915 26.8139 25.9756 26.7841 25.9472C26.7544 25.9187 26.7369 25.8798 26.7351 25.8387V24.2138C26.7151 24.0926 26.744 23.9683 26.8155 23.8684C26.8871 23.7685 26.9954 23.701 27.1167 23.681C27.2379 23.6609 27.3622 23.6898 27.4621 23.7614C27.562 23.833 27.6295 23.9413 27.6495 24.0625H26.8944ZM27.6489 24.0625C27.6589 24.0025 27.6805 23.945 27.7127 23.8934C27.7448 23.8417 27.7868 23.7969 27.8363 23.7615C27.8858 23.7261 27.9417 23.7008 28.001 23.687C28.0602 23.6732 28.1216 23.6712 28.1817 23.6811C28.2417 23.6911 28.2992 23.7127 28.3508 23.7449C28.4025 23.777 28.4473 23.819 28.4827 23.8685C28.5181 23.918 28.5434 23.9739 28.5572 24.0332C28.571 24.0924 28.573 24.1538 28.5631 24.2138V25.8378C28.5613 25.879 28.5438 25.9178 28.514 25.9463C28.4843 25.9748 28.4448 25.9907 28.4036 25.9907C28.3624 25.9907 28.3229 25.9748 28.2932 25.9463C28.2635 25.9178 28.2459 25.879 28.2442 25.8378V24.2138C28.2454 24.1726 28.2629 24.1336 28.2929 24.1052C28.3229 24.0769 28.3628 24.0615 28.404 24.0625H27.6489ZM20.1038 24.0625C20.1451 24.0617 20.185 24.0772 20.2149 24.1057C20.2447 24.1342 20.2621 24.1734 20.2631 24.2147V25.8387C20.2614 25.8798 20.2438 25.9187 20.2141 25.9472C20.1844 25.9756 20.1448 25.9915 20.1037 25.9915C20.0625 25.9915 20.0229 25.9756 19.9932 25.9472C19.9635 25.9187 19.9459 25.8798 19.9442 25.8387V24.2138C19.9241 24.0925 19.9531 23.9682 20.0247 23.8683C20.0962 23.7683 20.2046 23.7009 20.3259 23.6808C20.4472 23.6608 20.5715 23.6897 20.6714 23.7613C20.7714 23.8329 20.8388 23.9412 20.8589 24.0625H20.1038Z" fill="#B9CAE8"/>
<path d="M22.646 34.869H21.3257V43.7925H22.646V34.869Z" fill="white"/>
<path d="M29.3876 26.3533H19.8755V26.6691H29.3876V26.3533Z" fill="#B9CAE8"/>
<path fill-rule="evenodd" clip-rule="evenodd" d="M8.82682 42.1362C8.81371 42.134 8.80072 42.1312 8.78793 42.1276H8.78392L8.75847 42.1202V42.1173H8.7516L8.72901 42.109H8.72472C8.69199 42.0958 8.66049 42.0797 8.63062 42.061H8.62833C8.61889 42.0547 8.60945 42.0487 8.59973 42.0418C8.57964 42.0268 8.56053 42.0106 8.54252 41.9932L8.52365 41.974C8.50992 41.9593 8.49693 41.944 8.48475 41.928V41.9245H8.48217C8.47273 41.9119 8.46358 41.8985 8.45529 41.8851C8.45186 41.8799 8.44871 41.8745 8.44556 41.8688V41.8599H8.44356C8.42407 41.8259 8.40825 41.79 8.39637 41.7526C8.39265 41.7415 8.3895 41.73 8.38664 41.7189V41.7132C8.3835 41.6991 8.38064 41.6846 8.37835 41.6705V41.654H8.37091C8.36779 41.6304 8.36626 41.6067 8.36634 41.583V39.4722C8.36632 39.4486 8.36775 39.425 8.37063 39.4016H8.3732V39.3847C8.37755 39.3571 8.38396 39.3298 8.39236 39.3032C8.39522 39.2937 8.39866 39.2846 8.40209 39.2746C8.41241 39.2475 8.42474 39.2212 8.43898 39.1959H8.44156V39.1919C8.44437 39.1866 8.44752 39.1814 8.451 39.1765C8.45729 39.1665 8.46358 39.157 8.47016 39.1479C8.48217 39.1308 8.49516 39.1145 8.50906 39.099L8.51793 39.0895C8.52393 39.0832 8.52994 39.0769 8.53623 39.0709L8.54567 39.0623C8.5607 39.0484 8.57656 39.0355 8.59315 39.0235H8.59973V39.022C8.62446 39.0039 8.65068 38.988 8.67809 38.9743C8.7107 38.9578 8.74492 38.9448 8.7802 38.9354H8.78621V38.9336C8.79794 38.9302 8.80995 38.9279 8.82225 38.9253H8.82568C8.85315 38.9202 8.88097 38.917 8.90891 38.9159H20.4626C20.506 38.9176 20.5491 38.9243 20.591 38.9356L20.6196 38.9442H20.6225C20.645 38.952 20.6671 38.961 20.6885 38.9714V38.9737H20.6928C20.698 38.9763 20.7031 38.9788 20.708 38.9817V38.9837H20.7114C20.7172 38.9866 20.7223 38.9897 20.7277 38.9928C20.7516 39.0069 20.7744 39.0228 20.7958 39.0403V39.042H20.7978L20.8055 39.0486V39.0518H20.8092C20.8329 39.0721 20.8547 39.0945 20.8745 39.1187V39.1207H20.8762C20.8937 39.1419 20.9095 39.1643 20.9237 39.1879V39.1896C20.9268 39.1948 20.9297 39.1999 20.9325 39.2051V39.2094H20.9348C20.9455 39.2278 20.955 39.2469 20.9634 39.2666C20.9668 39.2746 20.97 39.2832 20.9728 39.2912V39.296H20.9746C20.9774 39.3046 20.9803 39.3138 20.9826 39.3226V39.3255C20.9927 39.3616 20.999 39.3987 21.0015 39.4362V39.4536C21.0015 39.4605 21.0015 39.4676 21.0015 39.4748V41.5856C21.0015 41.5928 21.0015 41.6002 21.0015 41.6073V41.6242C20.9988 41.6618 20.9925 41.6991 20.9826 41.7355V41.7378C20.98 41.7466 20.9771 41.7561 20.9743 41.7649H20.9728V41.7689C20.97 41.7775 20.9666 41.7861 20.9634 41.7944C20.958 41.8075 20.9523 41.8207 20.946 41.8333H20.9437V41.8376C20.9411 41.843 20.9385 41.8479 20.9357 41.8527H20.9337V41.8565C20.9308 41.8619 20.9277 41.8673 20.9245 41.8725C20.9102 41.8963 20.8941 41.9191 20.8765 41.9405C20.8742 41.9434 20.8718 41.9462 20.8693 41.9488H20.8667V41.9523C20.8489 41.9725 20.8298 41.9916 20.8095 42.0095H20.8064V42.0121L20.7978 42.0192C20.771 42.0409 20.7423 42.06 20.712 42.0764H20.7094L20.6931 42.0853H20.69V42.087L20.6722 42.095H20.6697C20.6539 42.1021 20.6379 42.1082 20.6216 42.1139C20.5974 42.1218 20.5726 42.1281 20.5475 42.1328H20.543C20.5102 42.1389 20.477 42.1419 20.4437 42.1419H8.92979C8.89522 42.1419 8.86074 42.1386 8.82682 42.1319" fill="#6C8AC5"/>
<path fill-rule="evenodd" clip-rule="evenodd" d="M9.13527 42.7858H20.2373C20.4409 42.7865 20.6359 42.8677 20.7798 43.0117C20.9237 43.1557 21.0048 43.3508 21.0053 43.5544V49.8427C21.0048 50.0463 20.9237 50.2413 20.7798 50.3853C20.6359 50.5292 20.4409 50.6104 20.2373 50.611H9.13527C8.93173 50.6104 8.7367 50.5292 8.59281 50.3853C8.44891 50.2413 8.36784 50.0463 8.36731 49.8427V43.5544C8.36784 43.3508 8.4489 43.1557 8.59279 43.0117C8.73668 42.8677 8.9317 42.7865 9.13527 42.7858Z" fill="#4CB5FF"/>
<path d="M20.2287 42.1227H9.1441V42.8672H20.2287V42.1227Z" fill="#3A9DE5"/>
<path fill-rule="evenodd" clip-rule="evenodd" d="M9.13527 42.7858H19.0678C19.2714 42.7865 19.4664 42.8677 19.6103 43.0117C19.7542 43.1557 19.8352 43.3508 19.8358 43.5544V49.8427C19.8352 50.0463 19.7542 50.2413 19.6103 50.3853C19.4664 50.5292 19.2713 50.6104 19.0678 50.611H9.13527C8.93173 50.6104 8.7367 50.5292 8.59281 50.3853C8.44891 50.2413 8.36784 50.0463 8.36731 49.8427V43.5544C8.36784 43.3508 8.4489 43.1557 8.59279 43.0117C8.73668 42.8677 8.9317 42.7865 9.13527 42.7858Z" fill="#83C9FF"/>
<path d="M16.9377 44.1829H8.26111V49.2145H16.9377V44.1829Z" fill="#E8EFFF"/>
<path fill-rule="evenodd" clip-rule="evenodd" d="M10.3379 39.4166C10.4003 39.4167 10.4601 39.4416 10.5042 39.4857C10.5484 39.5298 10.5733 39.5896 10.5735 39.652V40.9451C10.5735 41.0076 10.5487 41.0675 10.5045 41.1117C10.4603 41.1559 10.4004 41.1807 10.3379 41.1807C10.2754 41.1807 10.2154 41.1559 10.1712 41.1117C10.127 41.0675 10.1022 41.0076 10.1022 40.9451V39.6531C10.1024 39.5907 10.1273 39.5309 10.1715 39.4868C10.2156 39.4427 10.2755 39.4179 10.3379 39.4177M11.3853 39.4177C11.4477 39.418 11.5074 39.4428 11.5516 39.4869C11.5957 39.531 11.6206 39.5907 11.6209 39.6531V40.9451C11.622 40.9767 11.6168 41.0083 11.6054 41.0379C11.5941 41.0674 11.5769 41.0944 11.5549 41.1172C11.5328 41.14 11.5065 41.1581 11.4773 41.1705C11.4482 41.1829 11.4168 41.1892 11.3851 41.1892C11.3534 41.1892 11.3221 41.1829 11.2929 41.1705C11.2638 41.1581 11.2374 41.14 11.2154 41.1172C11.1934 41.0944 11.1762 41.0674 11.1648 41.0379C11.1535 41.0083 11.1482 40.9767 11.1493 40.9451V39.6531C11.1493 39.5905 11.1741 39.5304 11.2184 39.4861C11.2626 39.4417 11.3226 39.4167 11.3853 39.4166V39.4177ZM11.385 39.4166C11.4474 39.4167 11.5073 39.4416 11.5515 39.4857C11.5957 39.5298 11.6206 39.5895 11.6209 39.652V40.9451C11.622 40.9767 11.6168 41.0083 11.6054 41.0379C11.5941 41.0674 11.5769 41.0944 11.5549 41.1172C11.5328 41.14 11.5065 41.1581 11.4773 41.1705C11.4482 41.1829 11.4168 41.1892 11.3851 41.1892C11.3534 41.1892 11.3221 41.1829 11.2929 41.1705C11.2638 41.1581 11.2374 41.14 11.2154 41.1172C11.1934 41.0944 11.1762 41.0674 11.1648 41.0379C11.1535 41.0083 11.1482 40.9767 11.1493 40.9451V39.6531C11.1179 39.4831 11.1554 39.3076 11.2534 39.1652C11.3515 39.0227 11.5021 38.9251 11.6721 38.8938C11.8422 38.8624 12.0177 38.8998 12.1601 38.9979C12.3025 39.0959 12.4001 39.2466 12.4315 39.4166H11.385ZM12.4324 39.4166C12.4948 39.4167 12.5547 39.4416 12.5989 39.4857C12.6431 39.5298 12.668 39.5895 12.6683 39.652V40.9451C12.6694 40.9767 12.6642 41.0083 12.6528 41.0379C12.6414 41.0674 12.6243 41.0944 12.6022 41.1172C12.5802 41.14 12.5539 41.1581 12.5247 41.1705C12.4956 41.1829 12.4642 41.1892 12.4325 41.1892C12.4008 41.1892 12.3695 41.1829 12.3403 41.1705C12.3112 41.1581 12.2848 41.14 12.2628 41.1172C12.2408 41.0944 12.2236 41.0674 12.2122 41.0379C12.2009 41.0083 12.1956 40.9767 12.1967 40.9451V39.6531C12.1653 39.483 12.2028 39.3073 12.301 39.1648C12.3991 39.0224 12.5498 38.9247 12.72 38.8933C12.8901 38.862 13.0658 38.8995 13.2082 38.9976C13.3507 39.0957 13.4484 39.2464 13.4798 39.4166H12.4324ZM13.4801 39.4166C13.5425 39.4167 13.6023 39.4416 13.6464 39.4857C13.6906 39.5298 13.7155 39.5896 13.7157 39.652V40.9451C13.7168 40.9767 13.7116 41.0083 13.7002 41.0379C13.6888 41.0674 13.6717 41.0944 13.6496 41.1172C13.6276 41.14 13.6013 41.1581 13.5721 41.1705C13.5429 41.1829 13.5116 41.1892 13.4799 41.1892C13.4482 41.1892 13.4169 41.1829 13.3877 41.1705C13.3586 41.1581 13.3322 41.14 13.3102 41.1172C13.2882 41.0944 13.271 41.0674 13.2596 41.0379C13.2483 41.0083 13.243 40.9767 13.2441 40.9451V39.6531C13.2286 39.5689 13.2298 39.4824 13.2477 39.3986C13.2656 39.3148 13.2998 39.2353 13.3484 39.1648C13.397 39.0942 13.459 39.0339 13.5309 38.9873C13.6029 38.9407 13.6832 38.9087 13.7675 38.8932C13.8518 38.8776 13.9383 38.8789 14.0221 38.8968C14.1059 38.9147 14.1853 38.9489 14.2559 38.9975C14.3264 39.0461 14.3868 39.1081 14.4333 39.18C14.4799 39.2519 14.5119 39.3323 14.5275 39.4166H13.4801ZM14.5272 39.4166C14.5896 39.4167 14.6494 39.4416 14.6936 39.4857C14.7377 39.5298 14.7626 39.5896 14.7628 39.652V40.9451C14.7628 41.0076 14.738 41.0675 14.6938 41.1117C14.6496 41.1559 14.5897 41.1807 14.5272 41.1807C14.4647 41.1807 14.4047 41.1559 14.3605 41.1117C14.3163 41.0675 14.2915 41.0076 14.2915 40.9451V39.6531C14.2601 39.483 14.2976 39.3073 14.3958 39.1648C14.4939 39.0224 14.6446 38.9247 14.8148 38.8933C14.9849 38.862 15.1605 38.8995 15.303 38.9976C15.4455 39.0957 15.5432 39.2464 15.5746 39.4166H14.5272ZM15.5746 39.4166C15.637 39.4167 15.6968 39.4416 15.7409 39.4857C15.7851 39.5298 15.81 39.5896 15.8102 39.652V40.9451C15.8102 41.0076 15.7854 41.0675 15.7412 41.1117C15.697 41.1559 15.6371 41.1807 15.5746 41.1807C15.5121 41.1807 15.4521 41.1559 15.4079 41.1117C15.3637 41.0675 15.3389 41.0076 15.3389 40.9451V39.6531C15.3075 39.483 15.345 39.3073 15.4432 39.1648C15.5413 39.0224 15.692 38.9247 15.8622 38.8933C16.0323 38.862 16.2079 38.8995 16.3504 38.9976C16.4929 39.0957 16.5906 39.2464 16.622 39.4166H15.5746ZM16.622 39.4166C16.6844 39.4167 16.7442 39.4416 16.7883 39.4857C16.8325 39.5298 16.8574 39.5896 16.8576 39.652V40.9451C16.8576 41.0076 16.8328 41.0675 16.7886 41.1117C16.7444 41.1559 16.6845 41.1807 16.622 41.1807C16.5595 41.1807 16.4995 41.1559 16.4553 41.1117C16.4111 41.0675 16.3863 41.0076 16.3863 40.9451V39.6531C16.3549 39.483 16.3924 39.3073 16.4906 39.1648C16.5887 39.0224 16.7394 38.9247 16.9096 38.8933C17.0797 38.862 17.2553 38.8995 17.3978 38.9976C17.5403 39.0957 17.638 39.2464 17.6694 39.4166H16.622ZM17.6694 39.4166C17.7318 39.4167 17.7916 39.4416 17.8357 39.4857C17.8799 39.5298 17.9048 39.5896 17.905 39.652V40.9451C17.905 41.0076 17.8802 41.0675 17.836 41.1117C17.7918 41.1559 17.7319 41.1807 17.6694 41.1807C17.6069 41.1807 17.5469 41.1559 17.5027 41.1117C17.4585 41.0675 17.4337 41.0076 17.4337 40.9451V39.6531C17.4023 39.483 17.4398 39.3073 17.538 39.1648C17.6361 39.0224 17.7868 38.9247 17.9569 38.8933C18.1271 38.862 18.3027 38.8995 18.4452 38.9976C18.5877 39.0957 18.6854 39.2464 18.7168 39.4166H17.6694ZM8.24307 39.4166C8.30548 39.4167 8.3653 39.4416 8.40946 39.4857C8.45361 39.5298 8.47853 39.5896 8.47875 39.652V40.9451C8.47875 41.0076 8.45392 41.0675 8.40972 41.1117C8.36553 41.1559 8.30558 41.1807 8.24307 41.1807C8.18057 41.1807 8.12062 41.1559 8.07642 41.1117C8.03223 41.0675 8.0074 41.0076 8.0074 40.9451V39.6531C7.97603 39.483 8.01354 39.3073 8.11167 39.1648C8.2098 39.0224 8.36052 38.9247 8.53066 38.8933C8.70081 38.862 8.87645 38.8995 9.01894 38.9976C9.16143 39.0957 9.2591 39.2464 9.29047 39.4166H8.24307Z" fill="#5074B0"/>
<path fill-rule="evenodd" clip-rule="evenodd" d="M9.97245 43.3447C10.1228 43.3452 10.2669 43.4052 10.3731 43.5116C10.4794 43.6179 10.5392 43.762 10.5396 43.9124V47.8569C10.5413 47.9325 10.5279 48.0076 10.5002 48.0779C10.4724 48.1482 10.4309 48.2123 10.378 48.2663C10.3252 48.3204 10.2621 48.3633 10.1924 48.3927C10.1227 48.422 10.0479 48.4371 9.97231 48.4371C9.89671 48.4371 9.82188 48.422 9.75221 48.3927C9.68253 48.3633 9.61942 48.3204 9.56657 48.2663C9.51372 48.2123 9.47221 48.1482 9.44446 48.0779C9.41671 48.0076 9.40329 47.9325 9.40499 47.8569V43.9124C9.40537 43.762 9.46526 43.6179 9.57159 43.5115C9.67792 43.4051 9.82204 43.3451 9.97245 43.3447Z" fill="white"/>
<path fill-rule="evenodd" clip-rule="evenodd" d="M9.97259 43.3447C10.123 43.3452 10.267 43.4052 10.3733 43.5116C10.4795 43.6179 10.5394 43.762 10.5398 43.9124V44.1824H9.40485V43.9124C9.40522 43.762 9.46516 43.6178 9.57155 43.5114C9.67794 43.405 9.82213 43.345 9.97259 43.3447Z" fill="#BCE1FF"/>
<path d="M19.3564 49.67C19.3564 50.2351 18.9274 50.6928 18.3963 50.6928H14.6131C14.0826 50.6928 13.653 50.2351 13.653 49.67C13.653 49.1048 14.082 48.648 14.6131 48.648H18.3963C18.9263 48.648 19.3564 49.1056 19.3564 49.67Z" fill="#F9CD55"/>
<path d="M19.3571 49.67C19.3571 49.1054 18.928 48.648 18.3969 48.648H16.5198V50.6928H18.3969C18.9269 50.6928 19.3571 50.2351 19.3571 49.67Z" fill="#F44D11"/>
<path d="M14.6125 50.6929H16.5189V49.6781H13.653C13.6567 50.2393 14.0848 50.6929 14.6125 50.6929Z" fill="#F9CD55"/>
<path d="M18.3957 50.6929C18.9237 50.6929 19.3516 50.2393 19.3559 49.6781H16.5189V50.6929H18.3957Z" fill="#F44D11"/>
<path fill-rule="evenodd" clip-rule="evenodd" d="M16.5198 48.9712H18.483C18.6352 48.9712 18.7596 49.1033 18.7596 49.2652C18.7596 49.4271 18.6352 49.5593 18.483 49.5593H16.5198V48.9712Z" fill="#FFA484"/>
<path fill-rule="evenodd" clip-rule="evenodd" d="M15.7169 48.9712H16.5177V49.5593H15.7169C15.5644 49.5593 15.4403 49.4271 15.4403 49.2652C15.4403 49.1033 15.5644 48.9712 15.7169 48.9712Z" fill="#FFEBBC"/>
<path d="M16.0533 46.5315C16.3833 46.9745 16.3141 47.6166 15.8994 47.9681L12.9374 50.4731C12.5221 50.8246 11.918 50.7514 11.588 50.3083C11.2579 49.8653 11.3271 49.2238 11.7424 48.8725L14.7041 46.3676C15.1194 46.0161 15.7232 46.0896 16.0533 46.5315Z" fill="#F9CD55"/>
<path d="M16.053 46.5312C15.723 46.0893 15.1192 46.0164 14.7039 46.3674L13.2329 47.6101L14.4282 49.2118L15.898 47.9688C16.3127 47.6172 16.382 46.9751 16.0519 46.5321" fill="#F44D11"/>
<path d="M12.9364 50.4735L14.4288 49.2119L13.8356 48.417L11.5918 50.315C11.923 50.7521 12.5231 50.8239 12.9361 50.4743" fill="#F9CD55"/>
<path d="M15.8983 47.9676C16.3116 47.6175 16.3814 46.9788 16.0567 46.5375L13.8355 48.4158L14.4287 49.2106L15.8983 47.9676Z" fill="#F44D11"/>
<path fill-rule="evenodd" clip-rule="evenodd" d="M13.4229 47.8628L14.96 46.5631C14.9879 46.539 15.0205 46.5209 15.0557 46.5101C15.091 46.4993 15.1281 46.4959 15.1647 46.5002C15.2013 46.5045 15.2366 46.5164 15.2684 46.5351C15.3002 46.5538 15.3277 46.5789 15.3492 46.6089C15.3947 46.671 15.4153 46.7478 15.4071 46.8243C15.3988 46.9008 15.3623 46.9715 15.3046 47.0225L13.7667 48.325L13.4229 47.8628Z" fill="#FFA484"/>
<path fill-rule="evenodd" clip-rule="evenodd" d="M12.7939 48.3934L13.4217 47.8629L13.7649 48.3242L13.1374 48.8551C13.1093 48.8789 13.0766 48.8966 13.0414 48.9071C13.0061 48.9176 12.969 48.9207 12.9325 48.9162C12.896 48.9117 12.8608 48.8997 12.8292 48.8809C12.7975 48.8621 12.7701 48.8369 12.7487 48.807C12.7032 48.7449 12.6825 48.6681 12.6907 48.5916C12.6989 48.5151 12.7354 48.4444 12.793 48.3934" fill="#FFEBBC"/>
<path d="M51.8349 49.8581C51.8349 50.423 51.4059 50.8803 50.8748 50.8803H47.0916C46.5614 50.8803 46.1315 50.4227 46.1315 49.8581C46.1315 49.2935 46.5605 48.8362 47.0916 48.8362H50.8748C51.4051 48.8362 51.8349 49.2938 51.8349 49.8581Z" fill="#F9CD55"/>
<path d="M51.8353 49.8581C51.8353 49.2935 51.4063 48.8362 50.8751 48.8362H48.9983V50.8803H50.8751C51.4054 50.8803 51.8353 50.4227 51.8353 49.8581Z" fill="#F44D11"/>
<path d="M50.8751 50.8808C51.4031 50.8808 51.831 50.4274 51.8353 49.8663H48.9983V50.8808H50.8751Z" fill="#F44D11"/>
<path fill-rule="evenodd" clip-rule="evenodd" d="M48.9983 49.1593H50.9615C51.1137 49.1593 51.2381 49.2918 51.2381 49.4531C51.2381 49.6144 51.1137 49.7477 50.9615 49.7477H48.9983V49.1593Z" fill="#FFA484"/>
<path fill-rule="evenodd" clip-rule="evenodd" d="M48.1973 49.1593H48.9981V49.7477H48.1973C48.0451 49.7477 47.9207 49.6153 47.9207 49.4531C47.9207 49.2909 48.0451 49.1593 48.1973 49.1593Z" fill="#FFEBBC"/>
<path fill-rule="evenodd" clip-rule="evenodd" d="M37.2038 9.741H40.525C40.5847 9.741 40.642 9.76471 40.6842 9.80693C40.7264 9.84914 40.7501 9.90639 40.7501 9.96609C40.7501 10.0258 40.7264 10.083 40.6842 10.1253C40.642 10.1675 40.5847 10.1912 40.525 10.1912H37.2038C37.1441 10.1912 37.0868 10.1675 37.0446 10.1253C37.0024 10.083 36.9787 10.0258 36.9787 9.96609C36.9787 9.90639 37.0024 9.84914 37.0446 9.80693C37.0868 9.76471 37.1441 9.741 37.2038 9.741Z" fill="white"/>
<path fill-rule="evenodd" clip-rule="evenodd" d="M8.95092 50.956H78.0928C78.2512 50.956 78.3803 51.0727 78.3803 51.2154C78.3803 51.3581 78.2509 51.4744 78.0928 51.4744H8.95092C8.79255 51.4744 8.66345 51.3577 8.66345 51.2154C8.66345 51.0732 8.79412 50.956 8.95092 50.956Z" fill="#EC6632"/>
<path fill-rule="evenodd" clip-rule="evenodd" d="M20.0943 27.5653H29.411C29.47 27.567 29.5272 27.5452 29.5701 27.5047C29.613 27.4642 29.6381 27.4083 29.6398 27.3494V26.886C29.6381 26.827 29.613 26.7712 29.5701 26.7307C29.5272 26.6902 29.47 26.6684 29.411 26.6701H20.0943C20.0356 26.6688 19.9787 26.6907 19.9362 26.7312C19.8936 26.7717 19.8688 26.8273 19.8672 26.886V27.3494C19.8688 27.408 19.8936 27.4637 19.9362 27.5042C19.9787 27.5446 20.0356 27.5666 20.0943 27.5653Z" fill="#E3ECFF"/>
<path fill-rule="evenodd" clip-rule="evenodd" d="M27.2511 38.1075H34.8614C35.0767 38.1081 35.283 38.194 35.4353 38.3462C35.5875 38.4984 35.6733 38.7047 35.674 38.92V49.7981C35.6733 50.0134 35.5874 50.2196 35.4352 50.3718C35.2829 50.524 35.0767 50.6097 34.8614 50.6104H27.2511C27.0359 50.6097 26.8298 50.5238 26.6777 50.3717C26.5255 50.2195 26.4398 50.0133 26.4391 49.7981V38.92C26.4397 38.7048 26.5254 38.4986 26.6775 38.3463C26.8297 38.1941 27.0359 38.1082 27.2511 38.1075Z" fill="#B1D2FC"/>
<path d="M30.7232 40.8057C30.7232 41.1333 30.6262 41.4536 30.4442 41.726C30.2622 41.9984 30.0036 42.2107 29.701 42.3362C29.3983 42.4616 29.0653 42.4944 28.744 42.4306C28.4227 42.3667 28.1275 42.209 27.8959 41.9774C27.6642 41.7458 27.5064 41.4507 27.4424 41.1294C27.3784 40.8081 27.4112 40.4751 27.5365 40.1724C27.6618 39.8698 27.8741 39.611 28.1464 39.429C28.4188 39.2469 28.739 39.1497 29.0666 39.1497C29.5058 39.1497 29.9271 39.3241 30.2378 39.6347C30.5484 39.9453 30.723 40.3665 30.7232 40.8057Z" fill="#CBE2E7"/>
<path d="M30.5018 40.805C30.5017 41.0889 30.4175 41.3663 30.2597 41.6023C30.102 41.8383 29.8778 42.0222 29.6156 42.1308C29.3533 42.2394 29.0647 42.2678 28.7863 42.2124C28.508 42.1569 28.2522 42.0202 28.0516 41.8195C27.8509 41.6188 27.7142 41.363 27.6588 41.0846C27.6035 40.8062 27.6319 40.5177 27.7406 40.2554C27.8492 39.9932 28.0332 39.769 28.2692 39.6114C28.5052 39.4537 28.7827 39.3695 29.0665 39.3695C29.4472 39.3696 29.8123 39.5208 30.0814 39.79C30.3506 40.0593 30.5018 40.4243 30.5018 40.805Z" fill="white"/>
<path d="M28.0822 41.9915L28.0616 41.9786L28.0725 41.8608L28.1065 41.783L29.8652 39.7019L29.9359 39.6544L30.0523 39.6247L30.0671 39.643L28.0822 41.9915Z" fill="#9FC1D1"/>
<path d="M34.518 40.8057C34.518 41.1333 34.4209 41.4534 34.2389 41.7258C34.057 41.9981 33.7983 42.2104 33.4957 42.3357C33.1931 42.4611 32.8601 42.4939 32.5389 42.43C32.2177 42.3661 31.9226 42.2083 31.691 41.9767C31.4594 41.7451 31.3017 41.4501 31.2378 41.1288C31.1739 40.8076 31.2066 40.4746 31.332 40.172C31.4573 39.8694 31.6696 39.6108 31.9419 39.4288C32.2143 39.2468 32.5344 39.1497 32.862 39.1497C33.3012 39.1497 33.7224 39.3242 34.033 39.6347C34.3435 39.9453 34.518 40.3665 34.518 40.8057Z" fill="#CBE2E7"/>
<path d="M34.2968 40.805C34.2968 41.0889 34.2126 41.3665 34.0549 41.6025C33.8972 41.8386 33.673 42.0226 33.4107 42.1313C33.1483 42.2399 32.8597 42.2683 32.5812 42.213C32.3028 42.1576 32.047 42.0208 31.8462 41.8201C31.6455 41.6193 31.5088 41.3635 31.4534 41.0851C31.398 40.8066 31.4264 40.518 31.5351 40.2557C31.6437 39.9934 31.8277 39.7692 32.0638 39.6114C32.2998 39.4537 32.5774 39.3695 32.8613 39.3695C33.242 39.3696 33.6071 39.5208 33.8763 39.79C34.1455 40.0592 34.2968 40.4243 34.2968 40.805Z" fill="white"/>
<path d="M31.8785 41.9915L31.8579 41.9786L31.8685 41.8608L31.9028 41.783L33.6615 39.7019L33.7322 39.6544L33.8483 39.6247L33.8635 39.643L31.8785 41.9915Z" fill="#9FC1D1"/>
<path d="M30.7232 44.5759C30.7231 44.9035 30.6258 45.2236 30.4438 45.4959C30.2617 45.7682 30.003 45.9804 29.7004 46.1057C29.3977 46.231 29.0647 46.2638 28.7435 46.1998C28.4222 46.1359 28.1271 45.9781 27.8955 45.7464C27.664 45.5148 27.5062 45.2197 27.4423 44.8984C27.3784 44.5772 27.4112 44.2442 27.5366 43.9416C27.6619 43.6389 27.8742 43.3803 28.1465 43.1983C28.4188 43.0163 28.739 42.9191 29.0666 42.919C29.5058 42.919 29.9271 43.0935 30.2378 43.404C30.5484 43.7146 30.723 44.1358 30.7232 44.5751" fill="#CBE2E7"/>
<path d="M30.7232 48.3466C30.7232 48.6741 30.626 48.9944 30.4441 49.2667C30.2621 49.5391 30.0034 49.7514 29.7008 49.8768C29.3981 50.0022 29.0651 50.035 28.7438 49.9711C28.4225 49.9072 28.1274 49.7495 27.8958 49.5179C27.6641 49.2862 27.5063 48.9911 27.4424 48.6699C27.3784 48.3486 27.4112 48.0156 27.5365 47.7129C27.6618 47.4102 27.8741 47.1515 28.1464 46.9695C28.4188 46.7875 28.739 46.6903 29.0666 46.6902C29.5059 46.6902 29.9272 46.8647 30.2379 47.1753C30.5485 47.486 30.7231 47.9072 30.7232 48.3466Z" fill="#CBE2E7"/>
<path d="M30.5018 44.5762C30.5017 44.8601 30.4175 45.1375 30.2597 45.3735C30.102 45.6095 29.8778 45.7934 29.6156 45.902C29.3533 46.0106 29.0647 46.039 28.7863 45.9836C28.508 45.9282 28.2522 45.7914 28.0516 45.5907C27.8509 45.39 27.7142 45.1342 27.6588 44.8558C27.6035 44.5774 27.6319 44.2889 27.7406 44.0266C27.8492 43.7644 28.0332 43.5403 28.2692 43.3826C28.5052 43.2249 28.7827 43.1407 29.0665 43.1407C29.4472 43.1408 29.8123 43.2921 30.0814 43.5613C30.3506 43.8305 30.5018 44.1956 30.5018 44.5762Z" fill="white"/>
<path d="M30.5018 48.3458C30.5016 48.6297 30.4174 48.9071 30.2596 49.1431C30.1018 49.379 29.8776 49.5629 29.6154 49.6714C29.3531 49.78 29.0645 49.8083 28.7862 49.7529C28.5078 49.6974 28.2521 49.5607 28.0515 49.3599C27.8508 49.1592 27.7142 48.9035 27.6588 48.6251C27.6035 48.3467 27.6319 48.0581 27.7406 47.7959C27.8492 47.5337 28.0332 47.3096 28.2692 47.1519C28.5052 46.9942 28.7827 46.91 29.0665 46.91C29.255 46.9101 29.4417 46.9472 29.6159 47.0194C29.79 47.0916 29.9482 47.1974 30.0815 47.3307C30.2148 47.464 30.3205 47.6223 30.3926 47.7965C30.4647 47.9706 30.5018 48.1573 30.5018 48.3458Z" fill="white"/>
<path d="M28.0822 45.762L28.0616 45.7489L28.0725 45.631L28.1065 45.5535L29.8652 43.4725L29.9359 43.4247L30.0523 43.395L30.0671 43.4133L28.0822 45.762Z" fill="#9FC1D1"/>
<path d="M28.0822 49.532L28.0616 49.5189L28.0725 49.4013L28.1065 49.3238L29.8652 47.2428L29.9359 47.195L30.0523 47.1652L30.0671 47.1835L28.0822 49.532Z" fill="#9FC1D1"/>
<path d="M34.518 44.576C34.518 44.9035 34.4209 45.2237 34.2389 45.496C34.057 45.7684 33.7983 45.9806 33.4957 46.106C33.1931 46.2313 32.8601 46.2641 32.5389 46.2002C32.2177 46.1363 31.9226 45.9786 31.691 45.747C31.4594 45.5154 31.3017 45.2203 31.2378 44.8991C31.1739 44.5778 31.2066 44.2449 31.332 43.9423C31.4573 43.6397 31.6696 43.381 31.9419 43.199C32.2143 43.0171 32.5344 42.92 32.862 42.92C33.3012 42.92 33.7224 43.0944 34.033 43.405C34.3435 43.7156 34.518 44.1368 34.518 44.576Z" fill="#CBE2E7"/>
<path d="M34.518 48.3466C34.518 48.6741 34.4208 48.9942 34.2388 49.2665C34.0568 49.5388 33.7981 49.751 33.4955 49.8763C33.1929 50.0016 32.8599 50.0344 32.5387 49.9705C32.2175 49.9065 31.9224 49.7488 31.6909 49.5172C31.4593 49.2856 31.3016 48.9905 31.2377 48.6692C31.1739 48.348 31.2067 48.0151 31.332 47.7125C31.4574 47.4099 31.6696 47.1513 31.942 46.9693C32.2143 46.7873 32.5345 46.6902 32.862 46.6902C33.0795 46.6902 33.2948 46.7331 33.4958 46.8163C33.6967 46.8996 33.8793 47.0216 34.0331 47.1754C34.1869 47.3292 34.3088 47.5118 34.392 47.7127C34.4752 47.9137 34.5181 48.1291 34.518 48.3466Z" fill="#CBE2E7"/>
<path d="M34.2968 44.5762C34.2968 44.8601 34.2126 45.1377 34.0549 45.3738C33.8972 45.6098 33.673 45.7938 33.4107 45.9025C33.1483 46.0111 32.8597 46.0396 32.5812 45.9842C32.3028 45.9288 32.047 45.7921 31.8462 45.5913C31.6455 45.3905 31.5088 45.1347 31.4534 44.8563C31.398 44.5778 31.4264 44.2892 31.5351 44.0269C31.6437 43.7646 31.8277 43.5404 32.0638 43.3826C32.2998 43.2249 32.5774 43.1407 32.8613 43.1407C33.0498 43.1407 33.2365 43.1778 33.4107 43.25C33.5848 43.3221 33.7431 43.4279 33.8764 43.5612C34.0097 43.6945 34.1154 43.8527 34.1876 44.0269C34.2597 44.201 34.2968 44.3877 34.2968 44.5762Z" fill="white"/>
<path d="M34.2968 48.3458C34.2968 48.6297 34.2125 48.9073 34.0548 49.1433C33.897 49.3793 33.6728 49.5633 33.4105 49.6719C33.1481 49.7805 32.8595 49.8089 32.5811 49.7535C32.3026 49.698 32.0469 49.5613 31.8461 49.3605C31.6454 49.1598 31.5087 48.904 31.4533 48.6255C31.398 48.3471 31.4264 48.0584 31.5351 47.7961C31.6437 47.5338 31.8277 47.3097 32.0638 47.1519C32.2999 46.9942 32.5774 46.91 32.8613 46.91C33.0498 46.91 33.2365 46.9472 33.4107 47.0193C33.5849 47.0915 33.7432 47.1973 33.8765 47.3306C34.0098 47.4639 34.1155 47.6222 34.1876 47.7964C34.2598 47.9706 34.2969 48.1573 34.2968 48.3458Z" fill="white"/>
<path d="M31.8785 45.762L31.8579 45.7489L31.8685 45.631L31.9028 45.5535L33.6615 43.4725L33.7322 43.4247L33.8483 43.395L33.8635 43.4133L31.8785 45.762Z" fill="#9FC1D1"/>
<path d="M31.8785 49.532L31.8579 49.5189L31.8685 49.4013L31.9028 49.3238L33.6615 47.2428L33.7322 47.195L33.8483 47.1652L33.8635 47.1835L31.8785 49.532Z" fill="#9FC1D1"/>
</svg>
