<svg width="18" height="18" viewBox="0 0 18 18" fill="none" xmlns="http://www.w3.org/2000/svg">
<path d="M7.82141 7.66072H6.32141C6.11432 7.66072 5.94641 7.82863 5.94641 8.03572C5.94641 8.24281 6.11432 8.41072 6.32141 8.41072H7.82141C8.0285 8.41072 8.19641 8.24281 8.19641 8.03572C8.19641 7.82863 8.0285 7.66072 7.82141 7.66072ZM13.4464 4.28572H8.57141V2.03572H9.69641C9.9035 2.03572 10.0714 1.86781 10.0714 1.66072C10.0714 1.45363 9.9035 1.28572 9.69641 1.28572H8.196C7.989 1.28586 7.82127 1.45372 7.82141 1.66072V4.28572H5.19641C3.74741 4.28746 2.57315 5.46172 2.57141 6.91072V12.1611C2.57155 12.3681 2.73941 12.5359 2.94641 12.5357H7.82141V15.9111C7.82155 16.1181 7.98941 16.2859 8.19641 16.2857H8.19687C8.40382 16.2856 8.57155 16.1177 8.57141 15.9107V12.5357H15.6969C15.9038 12.5356 16.0715 12.3677 16.0714 12.1607V6.91072C16.0714 5.46098 14.8961 4.28572 13.4464 4.28572ZM10.8214 11.7857H3.32141V6.91072C3.32237 5.87558 4.16127 5.03668 5.19641 5.03572H11.6131C11.1257 5.5123 10.8214 6.17519 10.8214 6.91072V11.7857ZM15.3214 11.7857H11.5714V6.91072C11.5714 5.87517 12.4109 5.03572 13.4464 5.03572C14.4816 5.03668 15.3204 5.87558 15.3214 6.91072V11.7857Z" fill="#888D95" stroke="#888D95" stroke-width="0.242857"/>
</svg>
