<svg width="32" height="32" viewBox="0 0 32 32" fill="none" xmlns="http://www.w3.org/2000/svg">
<circle cx="16" cy="16" r="16" fill="#F8F9FB"/>
<path d="M20.1188 10.22L20.1202 10.2217C20.7138 10.9861 20.9896 11.7316 20.9896 12.9751V13.3301C20.9896 13.9081 21.0662 14.4011 21.2447 14.8605C21.4225 15.3183 21.6882 15.7082 22.0192 16.0948L22.0191 16.0948L22.0247 16.1011C22.3501 16.4705 22.4837 16.9732 22.4837 17.6299C22.4837 18.2191 22.2931 18.7667 21.9169 19.2119C21.3905 19.7713 20.6478 20.1291 19.8986 20.191L19.8971 20.1912C18.5912 20.3025 17.3018 20.3946 16.0007 20.3946C14.689 20.3946 13.4031 20.3391 12.1215 20.1929L12.1122 20.1918L12.1028 20.191C11.3527 20.1291 10.6101 19.7712 10.0847 19.212C9.70814 18.7665 9.51699 18.2187 9.51699 17.6299C9.51699 16.974 9.65105 16.4709 9.97595 16.1011C10.3202 15.7112 10.5882 15.3187 10.7646 14.8576C10.9411 14.3966 11.0119 13.9036 11.0119 13.3301V12.9751C11.0119 11.7049 11.3181 10.9226 11.9474 10.1374C12.8992 8.97493 14.4403 8.2665 15.9635 8.2665H16.038C17.5972 8.2665 19.1876 9.01177 20.1188 10.22Z" stroke="#031025" stroke-width="1.2"/>
<circle cx="21" cy="10" r="2.5" fill="#EB5757" stroke="white"/>
<path d="M12.79 20.5435C13.2067 22.2935 15.04 23.3768 16.79 22.9601C17.9567 22.6268 18.8733 21.7101 19.2067 20.5435" stroke="#031025" stroke-width="1.2"/>
</svg>
