<svg width="80" height="71" viewBox="0 0 80 71" fill="none" xmlns="http://www.w3.org/2000/svg">
<path d="M40 71C39.5803 71.0011 39.1711 70.8537 38.832 70.5796C30.5779 63.9397 20.6411 61.3689 10.4453 61.3787C7.72534 61.3974 5.01123 61.6685 2.33203 62.1891C1.75073 62.3058 1.15332 62.1241 0.707034 61.695C0.257571 61.2736 -0.000973644 60.6534 2.7556e-06 60.0007L2.7556e-06 3.0645C-0.000241244 1.98114 0.704837 1.05594 1.66797 0.876106C4.56641 0.311404 7.50269 0.0186247 10.4453 0.00074933L40 71ZM40 71C40.4197 71.0011 40.8288 70.8537 41.168 70.5796C49.4221 63.9397 59.3589 61.3689 69.5547 61.3787C72.2746 61.3974 74.9885 61.6685 77.668 62.1891C78.2493 62.308 78.8476 62.1259 79.293 61.695C79.7422 61.2736 80.001 60.6534 80 60.0007V3.0645C80.0002 1.98114 79.2952 1.05594 78.332 0.876106L40 71ZM78.2839 1.12144L78.2861 1.12186C79.1136 1.27636 79.7502 2.08294 79.75 3.06444V60.0007V60.001C79.7509 60.5892 79.5174 61.1417 79.1219 61.5127L79.1191 61.5154C78.7299 61.892 78.2143 62.0456 77.7181 61.9441L77.7156 61.9436C75.0211 61.4202 72.2918 61.1475 69.5564 61.1287H69.5549C59.3171 61.1189 49.3203 63.7007 41.0113 70.3848L41.0108 70.3852C40.7144 70.6248 40.3605 70.7509 40.0006 70.75H39.9993C39.6395 70.7509 39.2856 70.6248 38.9892 70.3852L38.9887 70.3848C30.6797 63.7007 20.6829 61.1189 10.4451 61.1287L10.4436 61.1287C7.70814 61.1475 4.97864 61.4202 2.28435 61.9436L2.28281 61.9439C1.78599 62.0437 1.27066 61.8901 0.880301 61.5148L0.878031 61.5127C0.482418 61.1417 0.249123 60.5893 0.250003 60.001V60.0007L0.250003 3.0645L0.250003 3.06444C0.249782 2.08293 0.886407 1.27636 1.71386 1.12186L1.71386 1.12187L1.71578 1.12149C4.59881 0.55979 7.51939 0.268565 10.4462 0.250748C20.9373 0.237684 31.1884 3.75079 39.8487 10.3314L40.0005 10.4467L40.1519 10.3309C51.281 1.81749 64.9793 -1.48871 78.2839 1.12144ZM37.8583 64.8794L38.25 65.1489V64.6734V14.0238V13.9007L38.1525 13.8257C30.0221 7.56708 20.3644 4.17867 10.4451 4.1882L10.4443 4.1882C8.27433 4.1972 6.10784 4.37485 3.96032 4.72005L3.75 4.75386V4.96688L3.75 57.4266V57.7163L4.03655 57.6739C6.16149 57.3598 8.30263 57.1985 10.4462 57.1912C20.1687 57.1792 29.6463 59.2287 37.8583 64.8794ZM75.9634 57.6739L76.25 57.7163V57.4266V4.96688V4.75386L76.0397 4.72005C73.8921 4.37485 71.7257 4.1972 69.5557 4.1882L69.5549 4.1882C59.6356 4.17867 49.9779 7.56708 41.8475 13.8257L41.75 13.9007V14.0238V64.6734V65.1489L42.1417 64.8794C50.3537 59.2287 59.8313 57.1792 69.5538 57.1912C71.6974 57.1985 73.8385 57.3598 75.9634 57.6739Z" fill="#FDBB96" stroke="#EE7444" stroke-width="0.5"/>
<line x1="13" y1="16" x2="22" y2="16" stroke="#FDBB96" stroke-width="2" stroke-linecap="round"/>
<line x1="13" y1="23" x2="26" y2="23" stroke="#FDBB96" stroke-width="2" stroke-linecap="round"/>
<line x1="13" y1="30" x2="26" y2="30" stroke="#FDBB96" stroke-width="2" stroke-linecap="round"/>
</svg>
