<svg width="21" height="20" viewBox="0 0 21 20" fill="none" xmlns="http://www.w3.org/2000/svg">
<path d="M6.62613 9.12437L6.63104 9.11281L6.63537 9.10103L8.72753 3.40363C9.00037 2.66062 9.70782 2.16676 10.4993 2.16676C11.2909 2.16675 11.9983 2.66061 12.2712 3.40363L14.3633 9.10103L14.3677 9.11281L14.3726 9.12437L17.0045 15.3124C17.5127 16.5075 16.6358 17.8334 15.3371 17.8334C15.0056 17.8334 14.6825 17.7292 14.4135 17.5355L10.7915 14.9277L10.4993 14.7173L10.2072 14.9277L6.58516 17.5355C6.31615 17.7292 5.99305 17.8334 5.66157 17.8334C4.36295 17.8334 3.48598 16.5075 3.99424 15.3124L6.62613 9.12437Z" stroke="#031025"/>
</svg>
