<svg width="18" height="18" viewBox="0 0 18 18" fill="none" xmlns="http://www.w3.org/2000/svg">
<path d="M16.0837 9.83333C16.0837 9.67802 16.1336 9.58097 16.1908 9.52379C16.248 9.46662 16.345 9.41667 16.5003 9.41667C16.6556 9.41667 16.7527 9.46662 16.8099 9.52379C16.867 9.58097 16.917 9.67802 16.917 9.83333V14.8333C16.917 16.0199 16.0202 16.9167 14.8337 16.9167H3.16699C1.98044 16.9167 1.08366 16.0199 1.08366 14.8333V9.83333C1.08366 9.67802 1.13361 9.58097 1.19079 9.52379C1.24796 9.46662 1.34501 9.41667 1.50033 9.41667C1.65564 9.41667 1.75269 9.46662 1.80986 9.52379C1.86704 9.58097 1.91699 9.67802 1.91699 9.83333V14.8333C1.91699 15.178 2.03371 15.4976 2.2682 15.7321C2.50269 15.9666 2.82231 16.0833 3.16699 16.0833H14.8337C15.1783 16.0833 15.498 15.9666 15.7325 15.7321C15.9669 15.4976 16.0837 15.178 16.0837 14.8333V9.83333Z" stroke="#031025" stroke-width="0.833333"/>
<path d="M8.58301 3.5V2.49408L7.87171 3.20537L5.95505 5.12204C5.78443 5.29265 5.54825 5.29265 5.37764 5.12204L5.08301 5.41667L5.37764 5.12204C5.20702 4.95142 5.20702 4.71524 5.37764 4.54463L8.71097 1.21129C8.73271 1.18956 8.74874 1.17358 8.76382 1.15944C8.76541 1.15795 8.76694 1.15653 8.76839 1.15519L8.7981 1.14528C8.98717 1.08226 9.1137 1.1062 9.14667 1.12268L9.23465 1.16667H9.24316C9.2561 1.17905 9.27026 1.19317 9.28838 1.21129L12.6217 4.54463C12.7923 4.71524 12.7923 4.95142 12.6217 5.12204C12.4511 5.29265 12.2149 5.29265 12.0443 5.12204L10.1276 3.20537L9.41634 2.49408V3.5V11.5C9.41634 11.6553 9.36639 11.7524 9.30921 11.8095C9.25204 11.8667 9.15499 11.9167 8.99967 11.9167C8.84436 11.9167 8.74731 11.8667 8.69014 11.8095C8.63296 11.7524 8.58301 11.6553 8.58301 11.5V3.5Z" stroke="#031025" stroke-width="0.833333"/>
</svg>
