<svg width="20" height="20" viewBox="0 0 20 20" fill="none" xmlns="http://www.w3.org/2000/svg">
<path d="M17.0829 15.9167L14.9995 13.8334C17.5829 10.5834 17.0829 5.83337 13.8329 3.25004C10.5829 0.666703 5.83288 1.25004 3.24955 4.4167C0.666214 7.6667 1.24955 12.4167 4.41621 15C7.16621 17.1667 11.0829 17.1667 13.8329 15L15.9162 17.0834C16.2495 17.4167 16.7495 17.4167 17.0829 17.0834C17.4162 16.75 17.4162 16.25 17.0829 15.9167ZM9.16621 15C5.91621 15 3.33288 12.4167 3.33288 9.1667C3.33288 5.9167 5.91621 3.33337 9.16621 3.33337C12.4162 3.33337 14.9995 5.9167 14.9995 9.1667C14.9995 12.4167 12.4162 15 9.16621 15Z" fill="#031025"/>
</svg>
