<svg width="100" height="50" viewBox="0 0 100 50" fill="none" xmlns="http://www.w3.org/2000/svg">
<path d="M20.5418 25.0354C11.2867 22.1911 3.16027 28.4926 0 31.3486V50.5136L95.5158 50.0828C97.9956 50.0717 100 48.0582 100 45.5784V2.93938C82.8442 -5.40301 73.8149 6.32143 67.4944 13.7619C61.1738 21.2025 40.8734 30.7875 36.1174 29.9958C33.4086 29.5449 31.3315 28.3515 20.5418 25.0354Z" fill="#434DCA"/>
<path d="M33.8347 30.0857C25.7973 39.3143 8.2707 42.2816 0 42.2068V50.063H95.4955C97.9833 50.063 100 48.0463 100 45.5585V14.8222C98.2721 15.2585 95.7171 16.6118 91.3537 17.5157C87.815 18.2488 82.5567 19.3115 76.9175 17.5157C67.7399 14.5932 61.7216 11.6449 55.4889 13.0265C46.7914 14.9545 39.6994 23.3519 33.8347 30.0857Z" fill="#1BD2FB"/>
</svg>
